<svg xmlns="http://www.w3.org/2000/svg" viewBox="0 0 1200 1500" width="1200" height="1500" role="img" aria-label="Lychee kombucha, macro">

  <defs>
    
  <radialGradient id="m-lychee-bubble" cx="38%" cy="34%" r="68%">
    <stop offset="0%" stop-color="#f3cfd7" stop-opacity="0.18"/>
    <stop offset="62%" stop-color="#f3cfd7" stop-opacity="0.05"/>
    <stop offset="88%" stop-color="#f3cfd7" stop-opacity="0.42"/>
    <stop offset="100%" stop-color="#f3cfd7" stop-opacity="0.08"/>
  </radialGradient>
    
  <filter id="m-lychee-bk-far" x="-35%" y="-35%" width="170%" height="170%">
    <feGaussianBlur stdDeviation="26"/>
  </filter>
    
  <filter id="m-lychee-bk-mid" x="-35%" y="-35%" width="170%" height="170%">
    <feGaussianBlur stdDeviation="8"/>
  </filter>
    
  <filter id="m-lychee-soft" x="-35%" y="-35%" width="170%" height="170%">
    <feGaussianBlur stdDeviation="40"/>
  </filter>
    
  <filter id="m-lychee-warp" x="-25%" y="-25%" width="150%" height="150%">
    <feTurbulence type="fractalNoise" baseFrequency="0.006 0.011" numOctaves="4" seed="37" result="t"/>
    <feDisplacementMap in="SourceGraphic" in2="t" scale="120" xChannelSelector="R" yChannelSelector="G"/>
    <feGaussianBlur stdDeviation="2"/>
  </filter>
    
  <filter id="m-lychee-caustic" x="0" y="0" width="100%" height="100%">
    <feTurbulence type="fractalNoise" baseFrequency="0.0075" numOctaves="2" seed="39" result="n"/>
    <feColorMatrix in="n" type="matrix"
      values="0 0 0 0 1  0 0 0 0 0.82  0 0 0 0 0.55  1.6 0 0 0 -0.62"/>
    <feGaussianBlur stdDeviation="3"/>
  </filter>
    
  <filter id="m-lychee-grain" x="0" y="0" width="100%" height="100%">
    <feTurbulence type="fractalNoise" baseFrequency="0.8" numOctaves="3" seed="42"/>
    <feColorMatrix type="saturate" values="0"/>
    <feComponentTransfer><feFuncA type="linear" slope="0.2"/></feComponentTransfer>
    <feComposite operator="in" in2="SourceGraphic"/>
  </filter>
    
  <radialGradient id="m-lychee-vig" cx="50%" cy="42%" r="72%">
    <stop offset="45%" stop-color="#000" stop-opacity="0"/>
    <stop offset="100%" stop-color="#000" stop-opacity="0.8"/>
  </radialGradient>

    <linearGradient id="m-lychee-base" x1="0.15" y1="0" x2="0.85" y2="1">
      <stop offset="0%" stop-color="#a97582"/>
      <stop offset="48%" stop-color="#331520"/>
      <stop offset="100%" stop-color="#070504"/>
    </linearGradient>
    <radialGradient id="m-lychee-core" cx="40%" cy="34%" r="52%">
      <stop offset="0%" stop-color="#f3cfd7" stop-opacity="0.9"/>
      <stop offset="42%" stop-color="#E9A8B6" stop-opacity="0.6"/>
      <stop offset="100%" stop-color="#E9A8B6" stop-opacity="0"/>
    </radialGradient>
  </defs>

  <rect width="1200" height="1500" fill="url(#m-lychee-base)"/>

  <!-- backlight behind the glass -->
  <ellipse cx="528" cy="510.00000000000006" rx="480" ry="450" fill="url(#m-lychee-core)" opacity="0.85"/>

  <!-- the liquid body. Only lightly warped: heavy blur turned this into smoke. -->
  <g filter="url(#m-lychee-warp)" opacity="0.75">
    <ellipse cx="888" cy="1110" rx="432" ry="390" fill="#331520"/>
    <ellipse cx="216" cy="1260" rx="384" ry="330" fill="#070504"/>
  </g>

  <!-- caustic webbing, drawn rather than filtered so it survives as structure -->
  <g style="mix-blend-mode:screen" opacity="0.55">
    <path d="M-119.5 1224.64 Q8.73 1090.5 136.96 1184.4"
      fill="none" stroke="#f3cfd7" stroke-opacity="0.23"
      stroke-width="4.81" stroke-linecap="round"/><path d="M-19.25 1360.58 Q255.45 1203.7 530.15 1313.52"
      fill="none" stroke="#f3cfd7" stroke-opacity="0.38"
      stroke-width="6.13" stroke-linecap="round"/><path d="M689.96 784.94 Q842.29 703.79 994.62 760.59"
      fill="none" stroke="#f3cfd7" stroke-opacity="0.26"
      stroke-width="3.03" stroke-linecap="round"/><path d="M1133.22 1477.75 Q1289.43 1359.31 1445.65 1442.21"
      fill="none" stroke="#f3cfd7" stroke-opacity="0.39"
      stroke-width="6.64" stroke-linecap="round"/><path d="M213.13 230.03 Q295.73 344.45 378.32 264.36"
      fill="none" stroke="#f3cfd7" stroke-opacity="0.18"
      stroke-width="6.11" stroke-linecap="round"/><path d="M-42.07 810.58 Q154.86 637.72 351.78 758.72"
      fill="none" stroke="#f3cfd7" stroke-opacity="0.21"
      stroke-width="3.65" stroke-linecap="round"/><path d="M1083.98 390.4 Q1294.07 211.86 1504.15 336.84"
      fill="none" stroke="#f3cfd7" stroke-opacity="0.38"
      stroke-width="2.39" stroke-linecap="round"/><path d="M1027.76 168.63 Q1251.8 41.87 1475.83 130.6"
      fill="none" stroke="#f3cfd7" stroke-opacity="0.35"
      stroke-width="6.56" stroke-linecap="round"/><path d="M1318.9 258.47 Q1556.38 56.95 1793.85 198.01"
      fill="none" stroke="#f3cfd7" stroke-opacity="0.24"
      stroke-width="1.58" stroke-linecap="round"/><path d="M1043.03 463.42 Q1207.77 462.11 1372.51 463.03"
      fill="none" stroke="#f3cfd7" stroke-opacity="0.08"
      stroke-width="4.99" stroke-linecap="round"/><path d="M1038.82 253.36 Q1274.26 59.09 1509.7 195.08"
      fill="none" stroke="#f3cfd7" stroke-opacity="0.22"
      stroke-width="5.41" stroke-linecap="round"/><path d="M902.92 1562.21 Q1134.89 1455.09 1366.86 1530.07"
      fill="none" stroke="#f3cfd7" stroke-opacity="0.09"
      stroke-width="6.41" stroke-linecap="round"/><path d="M155.9 268.15 Q298.33 241.11 440.75 260.03"
      fill="none" stroke="#f3cfd7" stroke-opacity="0.22"
      stroke-width="2.22" stroke-linecap="round"/><path d="M609.54 1391.85 Q778.21 1398.6 946.87 1393.88"
      fill="none" stroke="#f3cfd7" stroke-opacity="0.32"
      stroke-width="2.75" stroke-linecap="round"/><path d="M172.14 1079.85 Q333.94 1255.47 495.75 1132.54"
      fill="none" stroke="#f3cfd7" stroke-opacity="0.41"
      stroke-width="1.58" stroke-linecap="round"/><path d="M255.23 713.96 Q428.61 749.26 602 724.55"
      fill="none" stroke="#f3cfd7" stroke-opacity="0.08"
      stroke-width="2.34" stroke-linecap="round"/>
  </g>
  <g style="mix-blend-mode:screen" opacity="0.3">
    <rect width="1200" height="1500" filter="url(#m-lychee-caustic)"/>
  </g>

  <!-- the fizz itself: crisp rings at the front, soft orbs behind -->
  <g filter="url(#m-lychee-bk-far)"><circle cx="0.36" cy="1497.65" r="94.17" fill="url(#m-lychee-bubble)" opacity="0.11"/>
        <circle cx="0.36" cy="1497.65" r="94.17" fill="none" stroke="#f3cfd7" stroke-opacity="0.04" stroke-width="5.65"/>
      <circle cx="294.19" cy="480.67" r="100.89" fill="url(#m-lychee-bubble)" opacity="0.14"/>
        <circle cx="294.19" cy="480.67" r="100.89" fill="none" stroke="#f3cfd7" stroke-opacity="0.05" stroke-width="6.05"/>
      <circle cx="975.92" cy="777.5" r="81.58" fill="url(#m-lychee-bubble)" opacity="0.14"/>
        <circle cx="975.92" cy="777.5" r="81.58" fill="none" stroke="#f3cfd7" stroke-opacity="0.05" stroke-width="4.89"/>
      <circle cx="692.02" cy="470.61" r="32.84" fill="url(#m-lychee-bubble)" opacity="0.08"/>
        <circle cx="692.02" cy="470.61" r="32.84" fill="none" stroke="#f3cfd7" stroke-opacity="0.03" stroke-width="1.97"/>
      <circle cx="604.41" cy="438.8" r="81.28" fill="url(#m-lychee-bubble)" opacity="0.12"/>
        <circle cx="604.41" cy="438.8" r="81.28" fill="none" stroke="#f3cfd7" stroke-opacity="0.04" stroke-width="4.88"/>
      <circle cx="1037.36" cy="146.04" r="64.3" fill="url(#m-lychee-bubble)" opacity="0.1"/>
        <circle cx="1037.36" cy="146.04" r="64.3" fill="none" stroke="#f3cfd7" stroke-opacity="0.03" stroke-width="3.86"/>
      <circle cx="185.21" cy="34.94" r="74.52" fill="url(#m-lychee-bubble)" opacity="0.15"/>
        <circle cx="185.21" cy="34.94" r="74.52" fill="none" stroke="#f3cfd7" stroke-opacity="0.05" stroke-width="4.47"/>
      <circle cx="969.57" cy="967.86" r="83.3" fill="url(#m-lychee-bubble)" opacity="0.16"/>
        <circle cx="969.57" cy="967.86" r="83.3" fill="none" stroke="#f3cfd7" stroke-opacity="0.06" stroke-width="5"/>
      <circle cx="1167.86" cy="1205.48" r="117.4" fill="url(#m-lychee-bubble)" opacity="0.11"/>
        <circle cx="1167.86" cy="1205.48" r="117.4" fill="none" stroke="#f3cfd7" stroke-opacity="0.04" stroke-width="7.04"/>
      <circle cx="48.32" cy="1115.4" r="89.35" fill="url(#m-lychee-bubble)" opacity="0.15"/>
        <circle cx="48.32" cy="1115.4" r="89.35" fill="none" stroke="#f3cfd7" stroke-opacity="0.05" stroke-width="5.36"/>
      <circle cx="464.97" cy="505.37" r="71.5" fill="url(#m-lychee-bubble)" opacity="0.13"/>
        <circle cx="464.97" cy="505.37" r="71.5" fill="none" stroke="#f3cfd7" stroke-opacity="0.05" stroke-width="4.29"/>
      <circle cx="909.25" cy="1143.1" r="30.19" fill="url(#m-lychee-bubble)" opacity="0.13"/>
        <circle cx="909.25" cy="1143.1" r="30.19" fill="none" stroke="#f3cfd7" stroke-opacity="0.05" stroke-width="1.81"/>
      <circle cx="435.57" cy="875.45" r="41.41" fill="url(#m-lychee-bubble)" opacity="0.09"/>
        <circle cx="435.57" cy="875.45" r="41.41" fill="none" stroke="#f3cfd7" stroke-opacity="0.03" stroke-width="2.48"/>
      <circle cx="42.51" cy="669.69" r="88.69" fill="url(#m-lychee-bubble)" opacity="0.1"/>
        <circle cx="42.51" cy="669.69" r="88.69" fill="none" stroke="#f3cfd7" stroke-opacity="0.03" stroke-width="5.32"/>
      <circle cx="585.19" cy="166.41" r="79.49" fill="url(#m-lychee-bubble)" opacity="0.1"/>
        <circle cx="585.19" cy="166.41" r="79.49" fill="none" stroke="#f3cfd7" stroke-opacity="0.03" stroke-width="4.77"/>
      <circle cx="452.18" cy="257.8" r="85.72" fill="url(#m-lychee-bubble)" opacity="0.08"/>
        <circle cx="452.18" cy="257.8" r="85.72" fill="none" stroke="#f3cfd7" stroke-opacity="0.03" stroke-width="5.14"/>
      <circle cx="590.88" cy="1156.67" r="40.21" fill="url(#m-lychee-bubble)" opacity="0.11"/>
        <circle cx="590.88" cy="1156.67" r="40.21" fill="none" stroke="#f3cfd7" stroke-opacity="0.04" stroke-width="2.41"/>
      <circle cx="18.05" cy="1203.7" r="32.42" fill="url(#m-lychee-bubble)" opacity="0.12"/>
        <circle cx="18.05" cy="1203.7" r="32.42" fill="none" stroke="#f3cfd7" stroke-opacity="0.04" stroke-width="1.95"/>
      <circle cx="634.93" cy="1087.59" r="41.74" fill="url(#m-lychee-bubble)" opacity="0.13"/>
        <circle cx="634.93" cy="1087.59" r="41.74" fill="none" stroke="#f3cfd7" stroke-opacity="0.05" stroke-width="2.5"/>
      <circle cx="908.69" cy="1354.79" r="114.38" fill="url(#m-lychee-bubble)" opacity="0.1"/>
        <circle cx="908.69" cy="1354.79" r="114.38" fill="none" stroke="#f3cfd7" stroke-opacity="0.03" stroke-width="6.86"/>
      <circle cx="548.47" cy="1145.83" r="84.27" fill="url(#m-lychee-bubble)" opacity="0.09"/>
        <circle cx="548.47" cy="1145.83" r="84.27" fill="none" stroke="#f3cfd7" stroke-opacity="0.03" stroke-width="5.06"/>
      <circle cx="1192.07" cy="1383.97" r="117.89" fill="url(#m-lychee-bubble)" opacity="0.12"/>
        <circle cx="1192.07" cy="1383.97" r="117.89" fill="none" stroke="#f3cfd7" stroke-opacity="0.04" stroke-width="7.07"/>
      <circle cx="1175.28" cy="1148.62" r="107.53" fill="url(#m-lychee-bubble)" opacity="0.13"/>
        <circle cx="1175.28" cy="1148.62" r="107.53" fill="none" stroke="#f3cfd7" stroke-opacity="0.05" stroke-width="6.45"/>
      <circle cx="406.3" cy="756.6" r="71.61" fill="url(#m-lychee-bubble)" opacity="0.08"/>
        <circle cx="406.3" cy="756.6" r="71.61" fill="none" stroke="#f3cfd7" stroke-opacity="0.03" stroke-width="4.3"/>
      <circle cx="790.88" cy="1466.11" r="51.07" fill="url(#m-lychee-bubble)" opacity="0.14"/>
        <circle cx="790.88" cy="1466.11" r="51.07" fill="none" stroke="#f3cfd7" stroke-opacity="0.05" stroke-width="3.06"/>
      <circle cx="501.06" cy="1171.29" r="112.27" fill="url(#m-lychee-bubble)" opacity="0.14"/>
        <circle cx="501.06" cy="1171.29" r="112.27" fill="none" stroke="#f3cfd7" stroke-opacity="0.05" stroke-width="6.74"/>
      <circle cx="1009.63" cy="1084.32" r="74.23" fill="url(#m-lychee-bubble)" opacity="0.09"/>
        <circle cx="1009.63" cy="1084.32" r="74.23" fill="none" stroke="#f3cfd7" stroke-opacity="0.03" stroke-width="4.45"/>
      <circle cx="370.91" cy="1413.37" r="57.33" fill="url(#m-lychee-bubble)" opacity="0.11"/>
        <circle cx="370.91" cy="1413.37" r="57.33" fill="none" stroke="#f3cfd7" stroke-opacity="0.04" stroke-width="3.44"/>
      <circle cx="89.02" cy="1272.04" r="96.98" fill="url(#m-lychee-bubble)" opacity="0.16"/>
        <circle cx="89.02" cy="1272.04" r="96.98" fill="none" stroke="#f3cfd7" stroke-opacity="0.06" stroke-width="5.82"/>
      <circle cx="85.4" cy="126.84" r="44.31" fill="url(#m-lychee-bubble)" opacity="0.16"/>
        <circle cx="85.4" cy="126.84" r="44.31" fill="none" stroke="#f3cfd7" stroke-opacity="0.06" stroke-width="2.66"/>
      <circle cx="549.16" cy="651.52" r="40.26" fill="url(#m-lychee-bubble)" opacity="0.14"/>
        <circle cx="549.16" cy="651.52" r="40.26" fill="none" stroke="#f3cfd7" stroke-opacity="0.05" stroke-width="2.42"/>
      <circle cx="25.56" cy="1459.72" r="87.61" fill="url(#m-lychee-bubble)" opacity="0.08"/>
        <circle cx="25.56" cy="1459.72" r="87.61" fill="none" stroke="#f3cfd7" stroke-opacity="0.03" stroke-width="5.26"/>
      <circle cx="1048.85" cy="99.75" r="93.51" fill="url(#m-lychee-bubble)" opacity="0.14"/>
        <circle cx="1048.85" cy="99.75" r="93.51" fill="none" stroke="#f3cfd7" stroke-opacity="0.05" stroke-width="5.61"/>
      <circle cx="855.28" cy="1336.73" r="89.49" fill="url(#m-lychee-bubble)" opacity="0.14"/>
        <circle cx="855.28" cy="1336.73" r="89.49" fill="none" stroke="#f3cfd7" stroke-opacity="0.05" stroke-width="5.37"/>
      <circle cx="1188.19" cy="909.38" r="58.18" fill="url(#m-lychee-bubble)" opacity="0.08"/>
        <circle cx="1188.19" cy="909.38" r="58.18" fill="none" stroke="#f3cfd7" stroke-opacity="0.03" stroke-width="3.49"/>
      <circle cx="508.95" cy="458.3" r="42.02" fill="url(#m-lychee-bubble)" opacity="0.13"/>
        <circle cx="508.95" cy="458.3" r="42.02" fill="none" stroke="#f3cfd7" stroke-opacity="0.05" stroke-width="2.52"/>
      <circle cx="438.71" cy="799.7" r="65.02" fill="url(#m-lychee-bubble)" opacity="0.11"/>
        <circle cx="438.71" cy="799.7" r="65.02" fill="none" stroke="#f3cfd7" stroke-opacity="0.04" stroke-width="3.9"/>
      <circle cx="696.96" cy="845.33" r="86.98" fill="url(#m-lychee-bubble)" opacity="0.12"/>
        <circle cx="696.96" cy="845.33" r="86.98" fill="none" stroke="#f3cfd7" stroke-opacity="0.04" stroke-width="5.22"/></g>
    <g filter="url(#m-lychee-bk-mid)"><circle cx="947" cy="886.16" r="23.01" fill="url(#m-lychee-bubble)" opacity="0.29"/>
        <circle cx="947" cy="886.16" r="23.01" fill="none" stroke="#f3cfd7" stroke-opacity="0.17" stroke-width="1.38"/>
      <circle cx="978.07" cy="1121.46" r="47.29" fill="url(#m-lychee-bubble)" opacity="0.22"/>
        <circle cx="978.07" cy="1121.46" r="47.29" fill="none" stroke="#f3cfd7" stroke-opacity="0.13" stroke-width="2.84"/>
      <circle cx="501.58" cy="156.61" r="55.8" fill="url(#m-lychee-bubble)" opacity="0.25"/>
        <circle cx="501.58" cy="156.61" r="55.8" fill="none" stroke="#f3cfd7" stroke-opacity="0.15" stroke-width="3.35"/>
      <circle cx="93.91" cy="395.39" r="26.74" fill="url(#m-lychee-bubble)" opacity="0.2"/>
        <circle cx="93.91" cy="395.39" r="26.74" fill="none" stroke="#f3cfd7" stroke-opacity="0.12" stroke-width="1.6"/>
      <circle cx="5.4" cy="887.84" r="65.27" fill="url(#m-lychee-bubble)" opacity="0.24"/>
        <circle cx="5.4" cy="887.84" r="65.27" fill="none" stroke="#f3cfd7" stroke-opacity="0.14" stroke-width="3.92"/>
      <circle cx="603.12" cy="245.32" r="51.17" fill="url(#m-lychee-bubble)" opacity="0.28"/>
        <circle cx="603.12" cy="245.32" r="51.17" fill="none" stroke="#f3cfd7" stroke-opacity="0.17" stroke-width="3.07"/>
      <circle cx="739.42" cy="201.23" r="54.11" fill="url(#m-lychee-bubble)" opacity="0.18"/>
        <circle cx="739.42" cy="201.23" r="54.11" fill="none" stroke="#f3cfd7" stroke-opacity="0.11" stroke-width="3.25"/>
      <circle cx="338.3" cy="281.11" r="53.12" fill="url(#m-lychee-bubble)" opacity="0.2"/>
        <circle cx="338.3" cy="281.11" r="53.12" fill="none" stroke="#f3cfd7" stroke-opacity="0.12" stroke-width="3.19"/>
      <circle cx="915.06" cy="269.16" r="57.31" fill="url(#m-lychee-bubble)" opacity="0.22"/>
        <circle cx="915.06" cy="269.16" r="57.31" fill="none" stroke="#f3cfd7" stroke-opacity="0.13" stroke-width="3.44"/>
      <circle cx="605.73" cy="1069.01" r="61.44" fill="url(#m-lychee-bubble)" opacity="0.17"/>
        <circle cx="605.73" cy="1069.01" r="61.44" fill="none" stroke="#f3cfd7" stroke-opacity="0.1" stroke-width="3.69"/>
      <circle cx="977.95" cy="101" r="52.24" fill="url(#m-lychee-bubble)" opacity="0.23"/>
        <circle cx="977.95" cy="101" r="52.24" fill="none" stroke="#f3cfd7" stroke-opacity="0.14" stroke-width="3.13"/>
      <circle cx="182.36" cy="66.11" r="50.88" fill="url(#m-lychee-bubble)" opacity="0.19"/>
        <circle cx="182.36" cy="66.11" r="50.88" fill="none" stroke="#f3cfd7" stroke-opacity="0.11" stroke-width="3.05"/>
      <circle cx="217.53" cy="1025.78" r="41.82" fill="url(#m-lychee-bubble)" opacity="0.18"/>
        <circle cx="217.53" cy="1025.78" r="41.82" fill="none" stroke="#f3cfd7" stroke-opacity="0.11" stroke-width="2.51"/>
      <circle cx="417.9" cy="1491.02" r="37.4" fill="url(#m-lychee-bubble)" opacity="0.23"/>
        <circle cx="417.9" cy="1491.02" r="37.4" fill="none" stroke="#f3cfd7" stroke-opacity="0.14" stroke-width="2.24"/>
      <circle cx="1116.59" cy="1099.62" r="61.8" fill="url(#m-lychee-bubble)" opacity="0.19"/>
        <circle cx="1116.59" cy="1099.62" r="61.8" fill="none" stroke="#f3cfd7" stroke-opacity="0.11" stroke-width="3.71"/>
      <circle cx="865.76" cy="1095.62" r="18.09" fill="url(#m-lychee-bubble)" opacity="0.17"/>
        <circle cx="865.76" cy="1095.62" r="18.09" fill="none" stroke="#f3cfd7" stroke-opacity="0.1" stroke-width="1.09"/>
      <circle cx="512.85" cy="1272.52" r="25.67" fill="url(#m-lychee-bubble)" opacity="0.25"/>
        <circle cx="512.85" cy="1272.52" r="25.67" fill="none" stroke="#f3cfd7" stroke-opacity="0.15" stroke-width="1.54"/>
      <circle cx="803.02" cy="1424.28" r="46.51" fill="url(#m-lychee-bubble)" opacity="0.21"/>
        <circle cx="803.02" cy="1424.28" r="46.51" fill="none" stroke="#f3cfd7" stroke-opacity="0.13" stroke-width="2.79"/>
      <circle cx="132.06" cy="869.76" r="34.9" fill="url(#m-lychee-bubble)" opacity="0.29"/>
        <circle cx="132.06" cy="869.76" r="34.9" fill="none" stroke="#f3cfd7" stroke-opacity="0.17" stroke-width="2.09"/>
      <circle cx="699.7" cy="1248.13" r="61.23" fill="url(#m-lychee-bubble)" opacity="0.27"/>
        <circle cx="699.7" cy="1248.13" r="61.23" fill="none" stroke="#f3cfd7" stroke-opacity="0.16" stroke-width="3.67"/>
      <circle cx="804.04" cy="434.11" r="22.1" fill="url(#m-lychee-bubble)" opacity="0.23"/>
        <circle cx="804.04" cy="434.11" r="22.1" fill="none" stroke="#f3cfd7" stroke-opacity="0.14" stroke-width="1.33"/></g>
    <g><circle cx="228.26" cy="1423.34" r="33.55" fill="url(#m-lychee-bubble)" opacity="0.38"/>
        <circle cx="228.26" cy="1423.34" r="33.55" fill="none" stroke="#f3cfd7" stroke-opacity="0.38" stroke-width="2.01"/>
      <circle cx="596.59" cy="1064.36" r="27.71" fill="url(#m-lychee-bubble)" opacity="0.4"/>
        <circle cx="596.59" cy="1064.36" r="27.71" fill="none" stroke="#f3cfd7" stroke-opacity="0.4" stroke-width="1.66"/>
      <circle cx="1051.21" cy="56.58" r="32.75" fill="url(#m-lychee-bubble)" opacity="0.46"/>
        <circle cx="1051.21" cy="56.58" r="32.75" fill="none" stroke="#f3cfd7" stroke-opacity="0.46" stroke-width="1.97"/>
      <circle cx="1150.27" cy="631.97" r="8.97" fill="url(#m-lychee-bubble)" opacity="0.23"/>
        <circle cx="1150.27" cy="631.97" r="8.97" fill="none" stroke="#f3cfd7" stroke-opacity="0.23" stroke-width="0.7"/>
      <circle cx="464.85" cy="958.09" r="11.64" fill="url(#m-lychee-bubble)" opacity="0.47"/>
        <circle cx="464.85" cy="958.09" r="11.64" fill="none" stroke="#f3cfd7" stroke-opacity="0.47" stroke-width="0.7"/>
      <circle cx="1121.74" cy="1292.03" r="28.56" fill="url(#m-lychee-bubble)" opacity="0.44"/>
        <circle cx="1121.74" cy="1292.03" r="28.56" fill="none" stroke="#f3cfd7" stroke-opacity="0.44" stroke-width="1.71"/>
      <circle cx="1126.78" cy="736.35" r="23.34" fill="url(#m-lychee-bubble)" opacity="0.25"/>
        <circle cx="1126.78" cy="736.35" r="23.34" fill="none" stroke="#f3cfd7" stroke-opacity="0.25" stroke-width="1.4"/>
      <circle cx="38.62" cy="1385.59" r="11.58" fill="url(#m-lychee-bubble)" opacity="0.26"/>
        <circle cx="38.62" cy="1385.59" r="11.58" fill="none" stroke="#f3cfd7" stroke-opacity="0.26" stroke-width="0.7"/>
      <circle cx="96.37" cy="1162.92" r="12.99" fill="url(#m-lychee-bubble)" opacity="0.23"/>
        <circle cx="96.37" cy="1162.92" r="12.99" fill="none" stroke="#f3cfd7" stroke-opacity="0.23" stroke-width="0.78"/>
      <circle cx="977.32" cy="345.24" r="16.02" fill="url(#m-lychee-bubble)" opacity="0.44"/>
        <circle cx="977.32" cy="345.24" r="16.02" fill="none" stroke="#f3cfd7" stroke-opacity="0.44" stroke-width="0.96"/>
      <circle cx="625.08" cy="1180.32" r="9.75" fill="url(#m-lychee-bubble)" opacity="0.42"/>
        <circle cx="625.08" cy="1180.32" r="9.75" fill="none" stroke="#f3cfd7" stroke-opacity="0.42" stroke-width="0.7"/>
      <circle cx="444.92" cy="645.02" r="15.69" fill="url(#m-lychee-bubble)" opacity="0.32"/>
        <circle cx="444.92" cy="645.02" r="15.69" fill="none" stroke="#f3cfd7" stroke-opacity="0.32" stroke-width="0.94"/>
      <circle cx="328.87" cy="224.39" r="13.07" fill="url(#m-lychee-bubble)" opacity="0.26"/>
        <circle cx="328.87" cy="224.39" r="13.07" fill="none" stroke="#f3cfd7" stroke-opacity="0.26" stroke-width="0.78"/>
      <circle cx="1006.06" cy="1082.18" r="20.43" fill="url(#m-lychee-bubble)" opacity="0.5"/>
        <circle cx="1006.06" cy="1082.18" r="20.43" fill="none" stroke="#f3cfd7" stroke-opacity="0.5" stroke-width="1.23"/></g>
  <circle cx="0.45" cy="470.72" r="24.77" fill="none" stroke="#f3cfd7" stroke-opacity="0.26" stroke-width="3.22"/>
      <circle cx="-6.98" cy="462.3" r="4.95" fill="#FFFFFF" opacity="0.21"/>
      <path d="M-17.38 479.64 A 24.77 24.77 0 0 0 9.37 488.55"
        fill="none" stroke="#f3cfd7" stroke-opacity="0.13" stroke-width="2.23"/><circle cx="687.39" cy="765.06" r="24.16" fill="none" stroke="#f3cfd7" stroke-opacity="0.6" stroke-width="3.14"/>
      <circle cx="680.14" cy="756.85" r="4.83" fill="#FFFFFF" opacity="0.48"/>
      <path d="M669.99 773.76 A 24.16 24.16 0 0 0 696.09 782.46"
        fill="none" stroke="#f3cfd7" stroke-opacity="0.3" stroke-width="2.17"/><circle cx="727.47" cy="1297.89" r="32.62" fill="none" stroke="#f3cfd7" stroke-opacity="0.81" stroke-width="4.24"/>
      <circle cx="717.68" cy="1286.8" r="6.52" fill="#FFFFFF" opacity="0.65"/>
      <path d="M703.98 1309.63 A 32.62 32.62 0 0 0 739.21 1321.38"
        fill="none" stroke="#f3cfd7" stroke-opacity="0.41" stroke-width="2.94"/><circle cx="1063.6" cy="989.19" r="41.53" fill="none" stroke="#f3cfd7" stroke-opacity="0.51" stroke-width="5.4"/>
      <circle cx="1051.14" cy="975.07" r="8.31" fill="#FFFFFF" opacity="0.41"/>
      <path d="M1033.7 1004.14 A 41.53 41.53 0 0 0 1078.55 1019.09"
        fill="none" stroke="#f3cfd7" stroke-opacity="0.26" stroke-width="3.74"/><circle cx="258.2" cy="554.27" r="32.38" fill="none" stroke="#f3cfd7" stroke-opacity="0.38" stroke-width="4.21"/>
      <circle cx="248.49" cy="543.26" r="6.48" fill="#FFFFFF" opacity="0.3"/>
      <path d="M234.89 565.93 A 32.38 32.38 0 0 0 269.86 577.58"
        fill="none" stroke="#f3cfd7" stroke-opacity="0.19" stroke-width="2.91"/><circle cx="47.19" cy="1447.64" r="24.88" fill="none" stroke="#f3cfd7" stroke-opacity="0.65" stroke-width="3.23"/>
      <circle cx="39.73" cy="1439.18" r="4.98" fill="#FFFFFF" opacity="0.52"/>
      <path d="M29.28 1456.6 A 24.88 24.88 0 0 0 56.15 1465.55"
        fill="none" stroke="#f3cfd7" stroke-opacity="0.33" stroke-width="2.24"/><circle cx="739.21" cy="438.87" r="32.97" fill="none" stroke="#f3cfd7" stroke-opacity="0.48" stroke-width="4.29"/>
      <circle cx="729.32" cy="427.66" r="6.59" fill="#FFFFFF" opacity="0.38"/>
      <path d="M715.47 450.74 A 32.97 32.97 0 0 0 751.08 462.61"
        fill="none" stroke="#f3cfd7" stroke-opacity="0.24" stroke-width="2.97"/><circle cx="1161.56" cy="985.72" r="48.82" fill="none" stroke="#f3cfd7" stroke-opacity="0.6" stroke-width="6.35"/>
      <circle cx="1146.91" cy="969.12" r="9.76" fill="#FFFFFF" opacity="0.48"/>
      <path d="M1126.41 1003.3 A 48.82 48.82 0 0 0 1179.14 1020.87"
        fill="none" stroke="#f3cfd7" stroke-opacity="0.3" stroke-width="4.39"/><circle cx="717.29" cy="417.44" r="28.32" fill="none" stroke="#f3cfd7" stroke-opacity="0.7" stroke-width="3.68"/>
      <circle cx="708.79" cy="407.81" r="5.66" fill="#FFFFFF" opacity="0.56"/>
      <path d="M696.9 427.64 A 28.32 28.32 0 0 0 727.49 437.83"
        fill="none" stroke="#f3cfd7" stroke-opacity="0.35" stroke-width="2.55"/><circle cx="439.98" cy="461.55" r="41.74" fill="none" stroke="#f3cfd7" stroke-opacity="0.57" stroke-width="5.43"/>
      <circle cx="427.46" cy="447.36" r="8.35" fill="#FFFFFF" opacity="0.46"/>
      <path d="M409.93 476.58 A 41.74 41.74 0 0 0 455.01 491.6"
        fill="none" stroke="#f3cfd7" stroke-opacity="0.28" stroke-width="3.76"/><circle cx="1029.44" cy="243.62" r="48.39" fill="none" stroke="#f3cfd7" stroke-opacity="0.35" stroke-width="6.29"/>
      <circle cx="1014.92" cy="227.17" r="9.68" fill="#FFFFFF" opacity="0.28"/>
      <path d="M994.6 261.04 A 48.39 48.39 0 0 0 1046.86 278.46"
        fill="none" stroke="#f3cfd7" stroke-opacity="0.18" stroke-width="4.36"/><circle cx="327.47" cy="733.38" r="27.56" fill="none" stroke="#f3cfd7" stroke-opacity="0.53" stroke-width="3.58"/>
      <circle cx="319.2" cy="724.01" r="5.51" fill="#FFFFFF" opacity="0.42"/>
      <path d="M307.63 743.3 A 27.56 27.56 0 0 0 337.39 753.22"
        fill="none" stroke="#f3cfd7" stroke-opacity="0.27" stroke-width="2.48"/><circle cx="108.09" cy="1421.62" r="54.25" fill="none" stroke="#f3cfd7" stroke-opacity="0.81" stroke-width="7.05"/>
      <circle cx="91.82" cy="1403.18" r="10.85" fill="#FFFFFF" opacity="0.65"/>
      <path d="M69.03 1441.15 A 54.25 54.25 0 0 0 127.62 1460.68"
        fill="none" stroke="#f3cfd7" stroke-opacity="0.41" stroke-width="4.88"/><circle cx="495.81" cy="293.29" r="23.4" fill="none" stroke="#f3cfd7" stroke-opacity="0.85" stroke-width="3.04"/>
      <circle cx="488.79" cy="285.33" r="4.68" fill="#FFFFFF" opacity="0.68"/>
      <path d="M478.96 301.71 A 23.4 23.4 0 0 0 504.23 310.14"
        fill="none" stroke="#f3cfd7" stroke-opacity="0.43" stroke-width="2.11"/><circle cx="423.4" cy="131.25" r="45.81" fill="none" stroke="#f3cfd7" stroke-opacity="0.79" stroke-width="5.96"/>
      <circle cx="409.66" cy="115.67" r="9.16" fill="#FFFFFF" opacity="0.63"/>
      <path d="M390.42 147.74 A 45.81 45.81 0 0 0 439.89 164.23"
        fill="none" stroke="#f3cfd7" stroke-opacity="0.4" stroke-width="4.12"/><circle cx="508.02" cy="325.65" r="53.71" fill="none" stroke="#f3cfd7" stroke-opacity="0.44" stroke-width="6.98"/>
      <circle cx="491.91" cy="307.39" r="10.74" fill="#FFFFFF" opacity="0.35"/>
      <path d="M469.35 344.99 A 53.71 53.71 0 0 0 527.36 364.32"
        fill="none" stroke="#f3cfd7" stroke-opacity="0.22" stroke-width="4.83"/><circle cx="430.59" cy="1066.32" r="53.31" fill="none" stroke="#f3cfd7" stroke-opacity="0.46" stroke-width="6.93"/>
      <circle cx="414.6" cy="1048.19" r="10.66" fill="#FFFFFF" opacity="0.37"/>
      <path d="M392.21 1085.51 A 53.31 53.31 0 0 0 449.78 1104.7"
        fill="none" stroke="#f3cfd7" stroke-opacity="0.23" stroke-width="4.8"/><circle cx="591.22" cy="809.93" r="11.51" fill="none" stroke="#f3cfd7" stroke-opacity="0.51" stroke-width="1.5"/>
      <circle cx="587.77" cy="806.02" r="2.3" fill="#FFFFFF" opacity="0.41"/>
      <path d="M582.93 814.07 A 11.51 11.51 0 0 0 595.36 818.22"
        fill="none" stroke="#f3cfd7" stroke-opacity="0.26" stroke-width="1.04"/><circle cx="359.91" cy="1294.86" r="33.73" fill="none" stroke="#f3cfd7" stroke-opacity="0.43" stroke-width="4.38"/>
      <circle cx="349.79" cy="1283.39" r="6.75" fill="#FFFFFF" opacity="0.34"/>
      <path d="M335.62 1307 A 33.73 33.73 0 0 0 372.05 1319.15"
        fill="none" stroke="#f3cfd7" stroke-opacity="0.22" stroke-width="3.04"/><circle cx="200.45" cy="606.05" r="40.77" fill="none" stroke="#f3cfd7" stroke-opacity="0.83" stroke-width="5.3"/>
      <circle cx="188.22" cy="592.19" r="8.15" fill="#FFFFFF" opacity="0.66"/>
      <path d="M171.1 620.73 A 40.77 40.77 0 0 0 215.13 635.4"
        fill="none" stroke="#f3cfd7" stroke-opacity="0.42" stroke-width="3.67"/><circle cx="882.28" cy="26.31" r="52.56" fill="none" stroke="#f3cfd7" stroke-opacity="0.28" stroke-width="6.83"/>
      <circle cx="866.51" cy="8.44" r="10.51" fill="#FFFFFF" opacity="0.22"/>
      <path d="M844.44 45.23 A 52.56 52.56 0 0 0 901.2 64.15"
        fill="none" stroke="#f3cfd7" stroke-opacity="0.14" stroke-width="4.73"/><circle cx="811.03" cy="327.13" r="28.71" fill="none" stroke="#f3cfd7" stroke-opacity="0.74" stroke-width="3.73"/>
      <circle cx="802.42" cy="317.37" r="5.74" fill="#FFFFFF" opacity="0.59"/>
      <path d="M790.36 337.47 A 28.71 28.71 0 0 0 821.37 347.8"
        fill="none" stroke="#f3cfd7" stroke-opacity="0.37" stroke-width="2.58"/><circle cx="1168.77" cy="977.2" r="20.51" fill="none" stroke="#f3cfd7" stroke-opacity="0.67" stroke-width="2.67"/>
      <circle cx="1162.62" cy="970.23" r="4.1" fill="#FFFFFF" opacity="0.54"/>
      <path d="M1154 984.58 A 20.51 20.51 0 0 0 1176.15 991.97"
        fill="none" stroke="#f3cfd7" stroke-opacity="0.34" stroke-width="1.85"/><circle cx="1018.48" cy="955.71" r="30.66" fill="none" stroke="#f3cfd7" stroke-opacity="0.61" stroke-width="3.99"/>
      <circle cx="1009.28" cy="945.29" r="6.13" fill="#FFFFFF" opacity="0.49"/>
      <path d="M996.4 966.75 A 30.66 30.66 0 0 0 1029.52 977.79"
        fill="none" stroke="#f3cfd7" stroke-opacity="0.31" stroke-width="2.76"/><circle cx="935.85" cy="588.77" r="61.9" fill="none" stroke="#f3cfd7" stroke-opacity="0.81" stroke-width="8.05"/>
      <circle cx="917.28" cy="567.72" r="12.38" fill="#FFFFFF" opacity="0.65"/>
      <path d="M891.28 611.05 A 61.9 61.9 0 0 0 958.13 633.34"
        fill="none" stroke="#f3cfd7" stroke-opacity="0.41" stroke-width="5.57"/><circle cx="948.71" cy="690.05" r="53.94" fill="none" stroke="#f3cfd7" stroke-opacity="0.59" stroke-width="7.01"/>
      <circle cx="932.53" cy="671.71" r="10.79" fill="#FFFFFF" opacity="0.47"/>
      <path d="M909.87 709.47 A 53.94 53.94 0 0 0 968.13 728.89"
        fill="none" stroke="#f3cfd7" stroke-opacity="0.3" stroke-width="4.85"/><circle cx="454.27" cy="659.15" r="38.67" fill="none" stroke="#f3cfd7" stroke-opacity="0.6" stroke-width="5.03"/>
      <circle cx="442.67" cy="646" r="7.73" fill="#FFFFFF" opacity="0.48"/>
      <path d="M426.43 673.07 A 38.67 38.67 0 0 0 468.19 686.99"
        fill="none" stroke="#f3cfd7" stroke-opacity="0.3" stroke-width="3.48"/><circle cx="784.31" cy="1390.57" r="57.95" fill="none" stroke="#f3cfd7" stroke-opacity="0.8" stroke-width="7.53"/>
      <circle cx="766.93" cy="1370.87" r="11.59" fill="#FFFFFF" opacity="0.64"/>
      <path d="M742.59 1411.43 A 57.95 57.95 0 0 0 805.17 1432.29"
        fill="none" stroke="#f3cfd7" stroke-opacity="0.4" stroke-width="5.22"/><circle cx="744.03" cy="1133.1" r="65.59" fill="none" stroke="#f3cfd7" stroke-opacity="0.5" stroke-width="8.53"/>
      <circle cx="724.35" cy="1110.8" r="13.12" fill="#FFFFFF" opacity="0.4"/>
      <path d="M696.81 1156.71 A 65.59 65.59 0 0 0 767.64 1180.32"
        fill="none" stroke="#f3cfd7" stroke-opacity="0.25" stroke-width="5.9"/><circle cx="802.61" cy="318.11" r="26.86" fill="none" stroke="#f3cfd7" stroke-opacity="0.41" stroke-width="3.49"/>
      <circle cx="794.55" cy="308.98" r="5.37" fill="#FFFFFF" opacity="0.33"/>
      <path d="M783.27 327.78 A 26.86 26.86 0 0 0 812.28 337.45"
        fill="none" stroke="#f3cfd7" stroke-opacity="0.21" stroke-width="2.42"/><circle cx="441.04" cy="270.35" r="17.72" fill="none" stroke="#f3cfd7" stroke-opacity="0.78" stroke-width="2.3"/>
      <circle cx="435.72" cy="264.33" r="3.54" fill="#FFFFFF" opacity="0.62"/>
      <path d="M428.28 276.73 A 17.72 17.72 0 0 0 447.42 283.11"
        fill="none" stroke="#f3cfd7" stroke-opacity="0.39" stroke-width="1.59"/><circle cx="348.07" cy="107.01" r="10.68" fill="none" stroke="#f3cfd7" stroke-opacity="0.56" stroke-width="1.39"/>
      <circle cx="344.87" cy="103.38" r="2.14" fill="#FFFFFF" opacity="0.45"/>
      <path d="M340.38 110.85 A 10.68 10.68 0 0 0 351.91 114.7"
        fill="none" stroke="#f3cfd7" stroke-opacity="0.28" stroke-width="0.96"/><circle cx="819.6" cy="362.85" r="42.06" fill="none" stroke="#f3cfd7" stroke-opacity="0.43" stroke-width="5.47"/>
      <circle cx="806.98" cy="348.55" r="8.41" fill="#FFFFFF" opacity="0.34"/>
      <path d="M789.32 377.99 A 42.06 42.06 0 0 0 834.74 393.13"
        fill="none" stroke="#f3cfd7" stroke-opacity="0.22" stroke-width="3.79"/><circle cx="259.3" cy="1056.93" r="38.88" fill="none" stroke="#f3cfd7" stroke-opacity="0.62" stroke-width="5.05"/>
      <circle cx="247.64" cy="1043.71" r="7.78" fill="#FFFFFF" opacity="0.5"/>
      <path d="M231.31 1070.93 A 38.88 38.88 0 0 0 273.3 1084.92"
        fill="none" stroke="#f3cfd7" stroke-opacity="0.31" stroke-width="3.5"/>

  <!-- a hard break of light across the top -->
  <ellipse cx="384" cy="240" rx="288" ry="105.00000000000001" fill="#f3cfd7" opacity="0.3" filter="url(#m-lychee-soft)"/>

  <rect width="1200" height="1500" fill="url(#m-lychee-vig)"/>
  <rect width="1200" height="1500" filter="url(#m-lychee-grain)" opacity="0.6" style="mix-blend-mode:overlay"/>
</svg>