<svg xmlns="http://www.w3.org/2000/svg" viewBox="0 0 1000 1000" width="1000" height="1000" role="img" aria-label="Tape night">

  <defs>
    
  <radialGradient id="e167-bubble" cx="38%" cy="34%" r="68%">
    <stop offset="0%" stop-color="#f4d4db" stop-opacity="0.18"/>
    <stop offset="62%" stop-color="#f4d4db" stop-opacity="0.05"/>
    <stop offset="88%" stop-color="#f4d4db" stop-opacity="0.42"/>
    <stop offset="100%" stop-color="#f4d4db" stop-opacity="0.08"/>
  </radialGradient>
    
  <filter id="e167-bk-far" x="-35%" y="-35%" width="170%" height="170%">
    <feGaussianBlur stdDeviation="20"/>
  </filter>
    
  <filter id="e167-bk-mid" x="-35%" y="-35%" width="170%" height="170%">
    <feGaussianBlur stdDeviation="6"/>
  </filter>
    
  <filter id="e167-soft" x="-35%" y="-35%" width="170%" height="170%">
    <feGaussianBlur stdDeviation="50"/>
  </filter>
    
  <filter id="e167-warp" x="-25%" y="-25%" width="150%" height="150%">
    <feTurbulence type="fractalNoise" baseFrequency="0.006 0.011" numOctaves="4" seed="167" result="t"/>
    <feDisplacementMap in="SourceGraphic" in2="t" scale="120" xChannelSelector="R" yChannelSelector="G"/>
    <feGaussianBlur stdDeviation="4"/>
  </filter>
    
  <filter id="e167-caustic" x="0" y="0" width="100%" height="100%">
    <feTurbulence type="fractalNoise" baseFrequency="0.01" numOctaves="2" seed="168" result="n"/>
    <feColorMatrix in="n" type="matrix"
      values="0 0 0 0 1  0 0 0 0 0.82  0 0 0 0 0.55  1.6 0 0 0 -0.62"/>
    <feGaussianBlur stdDeviation="2"/>
  </filter>
    
  <filter id="e167-grain" x="0" y="0" width="100%" height="100%">
    <feTurbulence type="fractalNoise" baseFrequency="0.8" numOctaves="3" seed="170"/>
    <feColorMatrix type="saturate" values="0"/>
    <feComponentTransfer><feFuncA type="linear" slope="0.22"/></feComponentTransfer>
    <feComposite operator="in" in2="SourceGraphic"/>
  </filter>
    
  <radialGradient id="e167-vig" cx="50%" cy="46%" r="72%">
    <stop offset="45%" stop-color="#000" stop-opacity="0"/>
    <stop offset="100%" stop-color="#000" stop-opacity="0.78"/>
  </radialGradient>
    
  <linearGradient id="e167-obj" x1="0" y1="0" x2="1" y2="0">
    <stop offset="0%" stop-color="#2c2022"/>
    <stop offset="16%" stop-color="#7a6468"/>
    <stop offset="46%" stop-color="#4e383c"/>
    <stop offset="82%" stop-color="#6c5358"/>
    <stop offset="100%" stop-color="#251b1d"/>
  </linearGradient>
  <linearGradient id="e167-fill" x1="0" y1="0" x2="0" y2="1">
    <stop offset="0%" stop-color="#f2cbd3"/>
    <stop offset="35%" stop-color="#E9A8B6"/>
    <stop offset="100%" stop-color="#8a636b"/>
  </linearGradient>
    <linearGradient id="e167-room" x1="0.2" y1="0" x2="0.8" y2="1">
      <stop offset="0%" stop-color="#302224"/>
      <stop offset="55%" stop-color="#0C0906"/>
      <stop offset="100%" stop-color="#070504"/>
    </linearGradient>
  </defs>
  
  <rect width="1000" height="1000" fill="#070504"/>
  <ellipse cx="500" cy="500" rx="600" ry="500" fill="#E9A8B6" opacity="0.14" filter="url(#e167-soft)"/>
  <circle cx="500" cy="500" r="440" fill="#0B0806"/>
  <circle cx="500" cy="500" r="88" fill="none" stroke="#f4d4db" stroke-opacity="0.11" stroke-width="1.92"/><circle cx="500" cy="500" r="96.37" fill="none" stroke="#f4d4db" stroke-opacity="0.13" stroke-width="1.51"/><circle cx="500" cy="500" r="104.74" fill="none" stroke="#f4d4db" stroke-opacity="0.22" stroke-width="1.47"/><circle cx="500" cy="500" r="113.11" fill="none" stroke="#f4d4db" stroke-opacity="0.2" stroke-width="1.25"/><circle cx="500" cy="500" r="121.48" fill="none" stroke="#f4d4db" stroke-opacity="0.16" stroke-width="0.94"/><circle cx="500" cy="500" r="129.85" fill="none" stroke="#f4d4db" stroke-opacity="0.11" stroke-width="1.67"/><circle cx="500" cy="500" r="138.22" fill="none" stroke="#f4d4db" stroke-opacity="0.19" stroke-width="1.71"/><circle cx="500" cy="500" r="146.6" fill="none" stroke="#f4d4db" stroke-opacity="0.21" stroke-width="1.36"/><circle cx="500" cy="500" r="154.97" fill="none" stroke="#f4d4db" stroke-opacity="0.12" stroke-width="1.16"/><circle cx="500" cy="500" r="163.34" fill="none" stroke="#f4d4db" stroke-opacity="0.11" stroke-width="1.02"/><circle cx="500" cy="500" r="171.71" fill="none" stroke="#f4d4db" stroke-opacity="0.19" stroke-width="1.61"/><circle cx="500" cy="500" r="180.08" fill="none" stroke="#f4d4db" stroke-opacity="0.15" stroke-width="1.27"/><circle cx="500" cy="500" r="188.45" fill="none" stroke="#f4d4db" stroke-opacity="0.14" stroke-width="1.96"/><circle cx="500" cy="500" r="196.82" fill="none" stroke="#f4d4db" stroke-opacity="0.15" stroke-width="1.07"/><circle cx="500" cy="500" r="205.19" fill="none" stroke="#f4d4db" stroke-opacity="0.16" stroke-width="0.95"/><circle cx="500" cy="500" r="213.56" fill="none" stroke="#f4d4db" stroke-opacity="0.11" stroke-width="1.16"/><circle cx="500" cy="500" r="221.93" fill="none" stroke="#f4d4db" stroke-opacity="0.2" stroke-width="1.88"/><circle cx="500" cy="500" r="230.3" fill="none" stroke="#f4d4db" stroke-opacity="0.21" stroke-width="1.75"/><circle cx="500" cy="500" r="238.67" fill="none" stroke="#f4d4db" stroke-opacity="0.18" stroke-width="1.2"/><circle cx="500" cy="500" r="247.04" fill="none" stroke="#f4d4db" stroke-opacity="0.17" stroke-width="0.85"/><circle cx="500" cy="500" r="255.41" fill="none" stroke="#f4d4db" stroke-opacity="0.14" stroke-width="0.94"/><circle cx="500" cy="500" r="263.79" fill="none" stroke="#f4d4db" stroke-opacity="0.19" stroke-width="1.75"/><circle cx="500" cy="500" r="272.16" fill="none" stroke="#f4d4db" stroke-opacity="0.2" stroke-width="1"/><circle cx="500" cy="500" r="280.53" fill="none" stroke="#f4d4db" stroke-opacity="0.16" stroke-width="1.68"/><circle cx="500" cy="500" r="288.9" fill="none" stroke="#f4d4db" stroke-opacity="0.17" stroke-width="1.83"/><circle cx="500" cy="500" r="297.27" fill="none" stroke="#f4d4db" stroke-opacity="0.11" stroke-width="1.71"/><circle cx="500" cy="500" r="305.64" fill="none" stroke="#f4d4db" stroke-opacity="0.19" stroke-width="1.86"/><circle cx="500" cy="500" r="314.01" fill="none" stroke="#f4d4db" stroke-opacity="0.22" stroke-width="1.74"/><circle cx="500" cy="500" r="322.38" fill="none" stroke="#f4d4db" stroke-opacity="0.14" stroke-width="1.86"/><circle cx="500" cy="500" r="330.75" fill="none" stroke="#f4d4db" stroke-opacity="0.2" stroke-width="0.97"/><circle cx="500" cy="500" r="339.12" fill="none" stroke="#f4d4db" stroke-opacity="0.12" stroke-width="1.13"/><circle cx="500" cy="500" r="347.49" fill="none" stroke="#f4d4db" stroke-opacity="0.13" stroke-width="1.15"/><circle cx="500" cy="500" r="355.86" fill="none" stroke="#f4d4db" stroke-opacity="0.19" stroke-width="1.39"/><circle cx="500" cy="500" r="364.23" fill="none" stroke="#f4d4db" stroke-opacity="0.16" stroke-width="1.01"/><circle cx="500" cy="500" r="372.6" fill="none" stroke="#f4d4db" stroke-opacity="0.14" stroke-width="1.19"/><circle cx="500" cy="500" r="380.98" fill="none" stroke="#f4d4db" stroke-opacity="0.18" stroke-width="1.01"/><circle cx="500" cy="500" r="389.35" fill="none" stroke="#f4d4db" stroke-opacity="0.14" stroke-width="1.52"/><circle cx="500" cy="500" r="397.72" fill="none" stroke="#f4d4db" stroke-opacity="0.16" stroke-width="1.47"/><circle cx="500" cy="500" r="406.09" fill="none" stroke="#f4d4db" stroke-opacity="0.13" stroke-width="1.25"/><circle cx="500" cy="500" r="414.46" fill="none" stroke="#f4d4db" stroke-opacity="0.13" stroke-width="1.54"/><circle cx="500" cy="500" r="422.83" fill="none" stroke="#f4d4db" stroke-opacity="0.14" stroke-width="1.89"/><circle cx="500" cy="500" r="431.2" fill="none" stroke="#f4d4db" stroke-opacity="0.18" stroke-width="1.93"/>
  <circle cx="500" cy="500" r="70.4" fill="#E9A8B6" opacity="0.8"/>
  <circle cx="500" cy="500" r="17.6" fill="#070504"/>
  <path d="M60 280 A440 440 0 0 1 764 148"
        fill="none" stroke="#f4d4db" stroke-opacity="0.3" stroke-width="2"/>
  <g filter="url(#e167-bk-mid)"><circle cx="1.32" cy="229.89" r="1.96" fill="#f4d4db" opacity="0.27"/><circle cx="37.66" cy="4.1" r="2.5" fill="#f4d4db" opacity="0.35"/><circle cx="801.09" cy="963.1" r="2.2" fill="#f4d4db" opacity="0.37"/><circle cx="433.14" cy="842.69" r="0.57" fill="#f4d4db" opacity="0.27"/><circle cx="424.25" cy="300.99" r="2.17" fill="#f4d4db" opacity="0.19"/><circle cx="555.13" cy="64.59" r="1.63" fill="#f4d4db" opacity="0.17"/><circle cx="2.2" cy="50.96" r="1.64" fill="#f4d4db" opacity="0.27"/><circle cx="303.89" cy="501.21" r="2.27" fill="#f4d4db" opacity="0.38"/><circle cx="354.56" cy="21.5" r="1.34" fill="#f4d4db" opacity="0.25"/><circle cx="915.92" cy="833.37" r="1.52" fill="#f4d4db" opacity="0.35"/><circle cx="749.57" cy="51" r="0.77" fill="#f4d4db" opacity="0.2"/><circle cx="106.64" cy="283.91" r="2.07" fill="#f4d4db" opacity="0.27"/><circle cx="87.98" cy="753.53" r="1.63" fill="#f4d4db" opacity="0.35"/><circle cx="183.88" cy="459.26" r="2" fill="#f4d4db" opacity="0.13"/><circle cx="221.44" cy="703.91" r="1.88" fill="#f4d4db" opacity="0.17"/><circle cx="886.37" cy="264.37" r="1.03" fill="#f4d4db" opacity="0.42"/><circle cx="742.52" cy="482.06" r="2.55" fill="#f4d4db" opacity="0.2"/><circle cx="172.16" cy="463.59" r="1.8" fill="#f4d4db" opacity="0.42"/><circle cx="826.82" cy="435.15" r="1.61" fill="#f4d4db" opacity="0.26"/><circle cx="25.61" cy="464.19" r="1.96" fill="#f4d4db" opacity="0.14"/><circle cx="901.12" cy="186.75" r="1.93" fill="#f4d4db" opacity="0.21"/><circle cx="733.77" cy="392.84" r="1.39" fill="#f4d4db" opacity="0.3"/><circle cx="908.38" cy="168.7" r="1.36" fill="#f4d4db" opacity="0.36"/><circle cx="321.58" cy="743.26" r="2.39" fill="#f4d4db" opacity="0.44"/><circle cx="641.65" cy="215.3" r="1.58" fill="#f4d4db" opacity="0.15"/><circle cx="804.37" cy="78.04" r="1.63" fill="#f4d4db" opacity="0.13"/><circle cx="978.68" cy="609.66" r="1.77" fill="#f4d4db" opacity="0.3"/><circle cx="322.02" cy="243.14" r="1.46" fill="#f4d4db" opacity="0.25"/><circle cx="724.67" cy="534.63" r="1.76" fill="#f4d4db" opacity="0.19"/><circle cx="0.71" cy="955.01" r="2.15" fill="#f4d4db" opacity="0.1"/></g>
  <rect width="1000" height="1000" fill="url(#e167-vig)"/>
  <rect width="1000" height="1000" filter="url(#e167-grain)" opacity="0.6" style="mix-blend-mode:overlay"/>
</svg>