<svg xmlns="http://www.w3.org/2000/svg" viewBox="0 0 1400 875" width="1400" height="875" role="img" aria-label="Food">

  <defs>
    
  <radialGradient id="e173-bubble" cx="38%" cy="34%" r="68%">
    <stop offset="0%" stop-color="#f8d094" stop-opacity="0.18"/>
    <stop offset="62%" stop-color="#f8d094" stop-opacity="0.05"/>
    <stop offset="88%" stop-color="#f8d094" stop-opacity="0.42"/>
    <stop offset="100%" stop-color="#f8d094" stop-opacity="0.08"/>
  </radialGradient>
    
  <filter id="e173-bk-far" x="-35%" y="-35%" width="170%" height="170%">
    <feGaussianBlur stdDeviation="28"/>
  </filter>
    
  <filter id="e173-bk-mid" x="-35%" y="-35%" width="170%" height="170%">
    <feGaussianBlur stdDeviation="8.4"/>
  </filter>
    
  <filter id="e173-soft" x="-35%" y="-35%" width="170%" height="170%">
    <feGaussianBlur stdDeviation="70"/>
  </filter>
    
  <filter id="e173-warp" x="-25%" y="-25%" width="150%" height="150%">
    <feTurbulence type="fractalNoise" baseFrequency="0.006 0.011" numOctaves="4" seed="173" result="t"/>
    <feDisplacementMap in="SourceGraphic" in2="t" scale="120" xChannelSelector="R" yChannelSelector="G"/>
    <feGaussianBlur stdDeviation="4"/>
  </filter>
    
  <filter id="e173-caustic" x="0" y="0" width="100%" height="100%">
    <feTurbulence type="fractalNoise" baseFrequency="0.01" numOctaves="2" seed="174" result="n"/>
    <feColorMatrix in="n" type="matrix"
      values="0 0 0 0 1  0 0 0 0 0.82  0 0 0 0 0.55  1.6 0 0 0 -0.62"/>
    <feGaussianBlur stdDeviation="2"/>
  </filter>
    
  <filter id="e173-grain" x="0" y="0" width="100%" height="100%">
    <feTurbulence type="fractalNoise" baseFrequency="0.8" numOctaves="3" seed="176"/>
    <feColorMatrix type="saturate" values="0"/>
    <feComponentTransfer><feFuncA type="linear" slope="0.22"/></feComponentTransfer>
    <feComposite operator="in" in2="SourceGraphic"/>
  </filter>
    
  <radialGradient id="e173-vig" cx="50%" cy="46%" r="72%">
    <stop offset="45%" stop-color="#000" stop-opacity="0"/>
    <stop offset="100%" stop-color="#000" stop-opacity="0.78"/>
  </radialGradient>
    
  <linearGradient id="e173-obj" x1="0" y1="0" x2="1" y2="0">
    <stop offset="0%" stop-color="#2d1e08"/>
    <stop offset="16%" stop-color="#7d6138"/>
    <stop offset="46%" stop-color="#50360e"/>
    <stop offset="82%" stop-color="#6f5023"/>
    <stop offset="100%" stop-color="#261907"/>
  </linearGradient>
  <linearGradient id="e173-fill" x1="0" y1="0" x2="0" y2="1">
    <stop offset="0%" stop-color="#f6c67e"/>
    <stop offset="35%" stop-color="#F0A028"/>
    <stop offset="100%" stop-color="#8e5f19"/>
  </linearGradient>
    <linearGradient id="e173-room" x1="0.2" y1="0" x2="0.8" y2="1">
      <stop offset="0%" stop-color="#31210a"/>
      <stop offset="55%" stop-color="#0C0906"/>
      <stop offset="100%" stop-color="#070504"/>
    </linearGradient>
  </defs>
  
  <rect width="1400" height="875" fill="#070504"/>
  <rect width="1400" height="875" fill="url(#e173-room)"/>
  <ellipse cx="560" cy="350" rx="644" ry="402.5" fill="#F0A028" opacity="0.22" filter="url(#e173-soft)"/>
  
  <g opacity="0.84">
    <ellipse cx="120.03" cy="611.71" rx="107.95" ry="107.95" fill="#000" opacity="0.5"/>
    <circle cx="113.55" cy="603.07" r="107.95" fill="url(#e173-obj)"/>
    <circle cx="113.55" cy="603.07" r="107.95" fill="none" stroke="#f6c882" stroke-opacity="0.6" stroke-width="3.78"/>
    <circle cx="113.55" cy="603.07" r="71.25" fill="#F0A028" opacity="0.4"/>
    <circle cx="113.55" cy="603.07" r="71.25" fill="none" stroke="#f6c882" stroke-opacity="0.3"/>
    <path d="M48.78 549.1 A 86.36 86.36 0 0 1 124.35 522.11"
          fill="none" stroke="#FFF" stroke-opacity="0.32" stroke-width="5.4"/>
  </g>
  <g opacity="0.86">
    <ellipse cx="309.28" cy="683.74" rx="59.66" ry="59.66" fill="#000" opacity="0.5"/>
    <circle cx="305.7" cy="678.96" r="59.66" fill="url(#e173-obj)"/>
    <circle cx="305.7" cy="678.96" r="59.66" fill="none" stroke="#f6c882" stroke-opacity="0.6" stroke-width="2.09"/>
    <circle cx="305.7" cy="678.96" r="39.37" fill="#F0A028" opacity="0.4"/>
    <circle cx="305.7" cy="678.96" r="39.37" fill="none" stroke="#f6c882" stroke-opacity="0.3"/>
    <path d="M269.91 649.13 A 47.72 47.72 0 0 1 311.67 634.22"
          fill="none" stroke="#FFF" stroke-opacity="0.32" stroke-width="2.98"/>
  </g>
  <g opacity="0.96">
    <ellipse cx="711.6" cy="576.05" rx="76.87" ry="76.87" fill="#000" opacity="0.5"/>
    <circle cx="706.98" cy="569.9" r="76.87" fill="url(#e173-obj)"/>
    <circle cx="706.98" cy="569.9" r="76.87" fill="none" stroke="#f6c882" stroke-opacity="0.6" stroke-width="2.69"/>
    <circle cx="706.98" cy="569.9" r="50.74" fill="#F0A028" opacity="0.4"/>
    <circle cx="706.98" cy="569.9" r="50.74" fill="none" stroke="#f6c882" stroke-opacity="0.3"/>
    <path d="M660.86 531.46 A 61.5 61.5 0 0 1 714.67 512.24"
          fill="none" stroke="#FFF" stroke-opacity="0.32" stroke-width="3.84"/>
  </g>
  <g opacity="0.91">
    <ellipse cx="985.17" cy="746.35" rx="68.81" ry="68.81" fill="#000" opacity="0.5"/>
    <circle cx="981.04" cy="740.85" r="68.81" fill="url(#e173-obj)"/>
    <circle cx="981.04" cy="740.85" r="68.81" fill="none" stroke="#f6c882" stroke-opacity="0.6" stroke-width="2.41"/>
    <circle cx="981.04" cy="740.85" r="45.42" fill="#F0A028" opacity="0.4"/>
    <circle cx="981.04" cy="740.85" r="45.42" fill="none" stroke="#f6c882" stroke-opacity="0.3"/>
    <path d="M939.75 706.44 A 55.05 55.05 0 0 1 987.92 689.24"
          fill="none" stroke="#FFF" stroke-opacity="0.32" stroke-width="3.44"/>
  </g>
  <g opacity="0.89">
    <ellipse cx="241.49" cy="349.27" rx="75.63" ry="75.63" fill="#000" opacity="0.5"/>
    <circle cx="236.95" cy="343.22" r="75.63" fill="url(#e173-obj)"/>
    <circle cx="236.95" cy="343.22" r="75.63" fill="none" stroke="#f6c882" stroke-opacity="0.6" stroke-width="2.65"/>
    <circle cx="236.95" cy="343.22" r="49.92" fill="#F0A028" opacity="0.4"/>
    <circle cx="236.95" cy="343.22" r="49.92" fill="none" stroke="#f6c882" stroke-opacity="0.3"/>
    <path d="M191.57 305.4 A 60.51 60.51 0 0 1 244.52 286.5"
          fill="none" stroke="#FFF" stroke-opacity="0.32" stroke-width="3.78"/>
  </g>
  <g opacity="0.99">
    <ellipse cx="377.73" cy="646.94" rx="122.35" ry="122.35" fill="#000" opacity="0.5"/>
    <circle cx="370.38" cy="637.15" r="122.35" fill="url(#e173-obj)"/>
    <circle cx="370.38" cy="637.15" r="122.35" fill="none" stroke="#f6c882" stroke-opacity="0.6" stroke-width="4.28"/>
    <circle cx="370.38" cy="637.15" r="80.75" fill="#F0A028" opacity="0.4"/>
    <circle cx="370.38" cy="637.15" r="80.75" fill="none" stroke="#f6c882" stroke-opacity="0.3"/>
    <path d="M296.97 575.98 A 97.88 97.88 0 0 1 382.62 545.39"
          fill="none" stroke="#FFF" stroke-opacity="0.32" stroke-width="6.12"/>
  </g>
  <g opacity="0.78">
    <ellipse cx="563.55" cy="247.09" rx="123.76" ry="123.76" fill="#000" opacity="0.5"/>
    <circle cx="556.13" cy="237.19" r="123.76" fill="url(#e173-obj)"/>
    <circle cx="556.13" cy="237.19" r="123.76" fill="none" stroke="#f6c882" stroke-opacity="0.6" stroke-width="4.33"/>
    <circle cx="556.13" cy="237.19" r="81.68" fill="#F0A028" opacity="0.4"/>
    <circle cx="556.13" cy="237.19" r="81.68" fill="none" stroke="#f6c882" stroke-opacity="0.3"/>
    <path d="M481.87 175.31 A 99.01 99.01 0 0 1 568.51 144.37"
          fill="none" stroke="#FFF" stroke-opacity="0.32" stroke-width="6.19"/>
  </g>
  <g opacity="0.97">
    <ellipse cx="1228.45" cy="334.49" rx="88.48" ry="88.48" fill="#000" opacity="0.5"/>
    <circle cx="1223.14" cy="327.41" r="88.48" fill="url(#e173-obj)"/>
    <circle cx="1223.14" cy="327.41" r="88.48" fill="none" stroke="#f6c882" stroke-opacity="0.6" stroke-width="3.1"/>
    <circle cx="1223.14" cy="327.41" r="58.4" fill="#F0A028" opacity="0.4"/>
    <circle cx="1223.14" cy="327.41" r="58.4" fill="none" stroke="#f6c882" stroke-opacity="0.3"/>
    <path d="M1170.05 283.17 A 70.79 70.79 0 0 1 1231.98 261.05"
          fill="none" stroke="#FFF" stroke-opacity="0.32" stroke-width="4.42"/>
  </g>
  <g opacity="0.95">
    <ellipse cx="580.81" cy="275.58" rx="76.57" ry="76.57" fill="#000" opacity="0.5"/>
    <circle cx="576.21" cy="269.46" r="76.57" fill="url(#e173-obj)"/>
    <circle cx="576.21" cy="269.46" r="76.57" fill="none" stroke="#f6c882" stroke-opacity="0.6" stroke-width="2.68"/>
    <circle cx="576.21" cy="269.46" r="50.53" fill="#F0A028" opacity="0.4"/>
    <circle cx="576.21" cy="269.46" r="50.53" fill="none" stroke="#f6c882" stroke-opacity="0.3"/>
    <path d="M530.27 231.17 A 61.25 61.25 0 0 1 583.87 212.03"
          fill="none" stroke="#FFF" stroke-opacity="0.32" stroke-width="3.83"/>
  </g>
  
  <g transform="translate(980 140) scale(0.37)" opacity="1">
    <ellipse cx="200" cy="968" rx="132" ry="17" fill="#000" opacity="0.62"/>
    <path d="M148 96 L148 208 C148 246 104 268 104 330 L104 902 C104 936 122 952 156 952 L244 952 C278 952 296 936 296 902 L296 330 C296 268 252 246 252 208 L252 96 Z" fill="url(#e173-obj)"/>
    <path d="M104 392 L104 902 C104 936 122 952 156 952 L244 952 C278 952 296 936 296 902 L296 392 Z" fill="url(#e173-fill)" opacity="0.92"/>
    <ellipse cx="200" cy="392" rx="96" ry="12" fill="#f6c882" opacity="0.45"/>
    <rect x="140" y="52" width="120" height="54" rx="8" fill="url(#e173-obj)"/>
    <rect x="140" y="52" width="120" height="12" rx="6" fill="#f6c882" opacity="0.3"/>
    
    <rect x="126" y="336" width="16" height="576" rx="8" fill="#FFF" opacity="0.26"/>
    <path d="M148 96 L148 208 C148 246 104 268 104 330 L104 902 C104 936 122 952 156 952 L244 952 C278 952 296 936 296 902 L296 330 C296 268 252 246 252 208 L252 96 Z" fill="none" stroke="#f6c882" stroke-opacity="0.6" stroke-width="6"/>
  </g>
  <g filter="url(#e173-bk-far)"><circle cx="1.94" cy="246.91" r="2.06" fill="#f6c882" opacity="0.15"/><circle cx="419.72" cy="661.3" r="1.19" fill="#f6c882" opacity="0.14"/><circle cx="329.65" cy="385.56" r="2.35" fill="#f6c882" opacity="0.43"/><circle cx="113.21" cy="104.36" r="1.47" fill="#f6c882" opacity="0.36"/><circle cx="1110.82" cy="317.26" r="2.32" fill="#f6c882" opacity="0.39"/><circle cx="1253.02" cy="488.92" r="1.02" fill="#f6c882" opacity="0.33"/><circle cx="1080.16" cy="233.09" r="1.08" fill="#f6c882" opacity="0.36"/><circle cx="884.64" cy="96.89" r="0.77" fill="#f6c882" opacity="0.42"/><circle cx="635.85" cy="351.07" r="1.1" fill="#f6c882" opacity="0.12"/><circle cx="1367.84" cy="774.07" r="1.37" fill="#f6c882" opacity="0.33"/><circle cx="1016.24" cy="797.48" r="2.41" fill="#f6c882" opacity="0.21"/><circle cx="446.3" cy="757.23" r="2.18" fill="#f6c882" opacity="0.3"/><circle cx="377.53" cy="214.22" r="1.91" fill="#f6c882" opacity="0.29"/><circle cx="120.5" cy="576.2" r="1.74" fill="#f6c882" opacity="0.25"/><circle cx="159.01" cy="774.52" r="2.45" fill="#f6c882" opacity="0.35"/><circle cx="173.04" cy="262.98" r="1.31" fill="#f6c882" opacity="0.25"/><circle cx="889.92" cy="379.64" r="0.73" fill="#f6c882" opacity="0.1"/><circle cx="1055.98" cy="46.89" r="1.81" fill="#f6c882" opacity="0.45"/><circle cx="60.87" cy="652.48" r="2.11" fill="#f6c882" opacity="0.16"/><circle cx="774.83" cy="756.76" r="2.15" fill="#f6c882" opacity="0.2"/><circle cx="733.13" cy="165.96" r="2.2" fill="#f6c882" opacity="0.4"/><circle cx="951.64" cy="375.54" r="1.15" fill="#f6c882" opacity="0.23"/><circle cx="1265.66" cy="242.62" r="1.08" fill="#f6c882" opacity="0.16"/><circle cx="181.58" cy="743.26" r="1.82" fill="#f6c882" opacity="0.35"/><circle cx="1313.61" cy="828.96" r="1.91" fill="#f6c882" opacity="0.27"/><circle cx="143.93" cy="718.7" r="2.26" fill="#f6c882" opacity="0.29"/><circle cx="291.81" cy="160.04" r="0.55" fill="#f6c882" opacity="0.39"/><circle cx="836.67" cy="202.11" r="0.71" fill="#f6c882" opacity="0.25"/><circle cx="225.88" cy="577.97" r="1.76" fill="#f6c882" opacity="0.1"/><circle cx="390.39" cy="574.89" r="1.56" fill="#f6c882" opacity="0.11"/></g>
  <rect width="1400" height="875" fill="url(#e173-vig)"/>
  <rect width="1400" height="875" filter="url(#e173-grain)" opacity="0.6" style="mix-blend-mode:overlay"/>
</svg>