<svg xmlns="http://www.w3.org/2000/svg" viewBox="0 0 1500 1000" width="1500" height="1000" role="img" aria-label="Why fermentation takes time">

  <defs>
    
  <radialGradient id="e193-bubble" cx="38%" cy="34%" r="68%">
    <stop offset="0%" stop-color="#e0bb95" stop-opacity="0.18"/>
    <stop offset="62%" stop-color="#e0bb95" stop-opacity="0.05"/>
    <stop offset="88%" stop-color="#e0bb95" stop-opacity="0.42"/>
    <stop offset="100%" stop-color="#e0bb95" stop-opacity="0.08"/>
  </radialGradient>
    
  <filter id="e193-bk-far" x="-35%" y="-35%" width="170%" height="170%">
    <feGaussianBlur stdDeviation="30"/>
  </filter>
    
  <filter id="e193-bk-mid" x="-35%" y="-35%" width="170%" height="170%">
    <feGaussianBlur stdDeviation="9"/>
  </filter>
    
  <filter id="e193-soft" x="-35%" y="-35%" width="170%" height="170%">
    <feGaussianBlur stdDeviation="75"/>
  </filter>
    
  <filter id="e193-warp" x="-25%" y="-25%" width="150%" height="150%">
    <feTurbulence type="fractalNoise" baseFrequency="0.006 0.011" numOctaves="4" seed="193" result="t"/>
    <feDisplacementMap in="SourceGraphic" in2="t" scale="120" xChannelSelector="R" yChannelSelector="G"/>
    <feGaussianBlur stdDeviation="4"/>
  </filter>
    
  <filter id="e193-caustic" x="0" y="0" width="100%" height="100%">
    <feTurbulence type="fractalNoise" baseFrequency="0.01" numOctaves="2" seed="194" result="n"/>
    <feColorMatrix in="n" type="matrix"
      values="0 0 0 0 1  0 0 0 0 0.82  0 0 0 0 0.55  1.6 0 0 0 -0.62"/>
    <feGaussianBlur stdDeviation="2"/>
  </filter>
    
  <filter id="e193-grain" x="0" y="0" width="100%" height="100%">
    <feTurbulence type="fractalNoise" baseFrequency="0.8" numOctaves="3" seed="196"/>
    <feColorMatrix type="saturate" values="0"/>
    <feComponentTransfer><feFuncA type="linear" slope="0.22"/></feComponentTransfer>
    <feComposite operator="in" in2="SourceGraphic"/>
  </filter>
    
  <radialGradient id="e193-vig" cx="50%" cy="46%" r="72%">
    <stop offset="45%" stop-color="#000" stop-opacity="0"/>
    <stop offset="100%" stop-color="#000" stop-opacity="0.78"/>
  </radialGradient>
    
  <linearGradient id="e193-obj" x1="0" y1="0" x2="1" y2="0">
    <stop offset="0%" stop-color="#241609"/>
    <stop offset="16%" stop-color="#6d5339"/>
    <stop offset="46%" stop-color="#41280f"/>
    <stop offset="82%" stop-color="#5d4024"/>
    <stop offset="100%" stop-color="#1f1307"/>
  </linearGradient>
  <linearGradient id="e193-fill" x1="0" y1="0" x2="0" y2="1">
    <stop offset="0%" stop-color="#d9ad7f"/>
    <stop offset="35%" stop-color="#C0762A"/>
    <stop offset="100%" stop-color="#72461a"/>
  </linearGradient>
    <linearGradient id="e193-room" x1="0.2" y1="0" x2="0.8" y2="1">
      <stop offset="0%" stop-color="#28190b"/>
      <stop offset="55%" stop-color="#0C0906"/>
      <stop offset="100%" stop-color="#070504"/>
    </linearGradient>
  </defs>
  
  <defs>
    <linearGradient id="e193-trail" x1="0" y1="0" x2="1" y2="0">
      <stop offset="0%" stop-color="#C0762A" stop-opacity="0.1"/>
      <stop offset="55%" stop-color="#C0762A" stop-opacity="0.7"/>
      <stop offset="100%" stop-color="#e0bb95" stop-opacity="1"/>
    </linearGradient>
  </defs>
  <rect width="1500" height="1000" fill="#070504"/>
  <rect width="1500" height="1000" fill="url(#e193-room)"/>
  <ellipse cx="1369.2" cy="620" rx="510.00000000000006" ry="340" fill="#C0762A" opacity="0.28" filter="url(#e193-soft)"/>
  <g filter="url(#e193-bk-mid)" opacity="0.6"><path d="M-94.77 888.85
      A 860 860 0 0 1 1594.77 888.85"
      fill="none" stroke="url(#e193-trail)" stroke-opacity="0.16" stroke-width="26" stroke-linecap="round"/><path d="M-94.77 888.85
      A 860 860 0 0 1 1594.77 888.85"
      fill="none" stroke="url(#e193-trail)" stroke-opacity="0.29" stroke-width="21" stroke-linecap="round"/><path d="M-94.77 888.85
      A 860 860 0 0 1 1594.77 888.85"
      fill="none" stroke="url(#e193-trail)" stroke-opacity="0.42" stroke-width="16" stroke-linecap="round"/><path d="M-94.77 888.85
      A 860 860 0 0 1 1594.77 888.85"
      fill="none" stroke="url(#e193-trail)" stroke-opacity="0.55" stroke-width="11" stroke-linecap="round"/><path d="M-94.77 888.85
      A 860 860 0 0 1 1594.77 888.85"
      fill="none" stroke="url(#e193-trail)" stroke-opacity="0.68" stroke-width="6" stroke-linecap="round"/></g>
  <path d="M-94.77 888.85
      A 860 860 0 0 1 1594.77 888.85"
      fill="none" stroke="url(#e193-trail)" stroke-opacity="0.16" stroke-width="26" stroke-linecap="round"/><path d="M-94.77 888.85
      A 860 860 0 0 1 1594.77 888.85"
      fill="none" stroke="url(#e193-trail)" stroke-opacity="0.29" stroke-width="21" stroke-linecap="round"/><path d="M-94.77 888.85
      A 860 860 0 0 1 1594.77 888.85"
      fill="none" stroke="url(#e193-trail)" stroke-opacity="0.42" stroke-width="16" stroke-linecap="round"/><path d="M-94.77 888.85
      A 860 860 0 0 1 1594.77 888.85"
      fill="none" stroke="url(#e193-trail)" stroke-opacity="0.55" stroke-width="11" stroke-linecap="round"/><path d="M-94.77 888.85
      A 860 860 0 0 1 1594.77 888.85"
      fill="none" stroke="url(#e193-trail)" stroke-opacity="0.68" stroke-width="6" stroke-linecap="round"/>
  <line x1="-94.77" y1="888.85" x2="-155.67" y2="877.23"
        stroke="#e0bb95" stroke-opacity="0.18" stroke-width="4" stroke-linecap="round"/>
      <text x="-185.14" y="871.61" text-anchor="middle" dominant-baseline="middle"
              font-family="Menlo, monospace" font-size="26" letter-spacing="2"
              fill="#e0bb95" fill-opacity="0.18">00</text><line x1="-75.59" y1="809.17" x2="-100.55" y2="801.89"
        stroke="#C0762A" stroke-opacity="0.12" stroke-width="2" stroke-linecap="round"/>
      <line x1="-48.92" y1="731.68" x2="-73.07" y2="722.06"
        stroke="#C0762A" stroke-opacity="0.14" stroke-width="2" stroke-linecap="round"/>
      <line x1="-14.99" y1="657.08" x2="-38.12" y2="645.2"
        stroke="#C0762A" stroke-opacity="0.15" stroke-width="2" stroke-linecap="round"/>
      <line x1="25.88" y1="586.05" x2="3.99" y2="572.02"
        stroke="#C0762A" stroke-opacity="0.17" stroke-width="2" stroke-linecap="round"/>
      <line x1="73.33" y1="519.23" x2="24.55" y2="480.96"
        stroke="#e0bb95" stroke-opacity="0.3" stroke-width="4" stroke-linecap="round"/>
      <text x="0.94" y="462.45" text-anchor="middle" dominant-baseline="middle"
              font-family="Menlo, monospace" font-size="26" letter-spacing="2"
              fill="#e0bb95" fill-opacity="0.3">05</text><line x1="126.93" y1="457.23" x2="108.09" y2="439.31"
        stroke="#C0762A" stroke-opacity="0.2" stroke-width="2" stroke-linecap="round"/>
      <line x1="186.18" y1="400.61" x2="169.13" y2="380.98"
        stroke="#C0762A" stroke-opacity="0.21" stroke-width="2" stroke-linecap="round"/>
      <line x1="250.55" y1="349.89" x2="235.45" y2="328.72"
        stroke="#C0762A" stroke-opacity="0.23" stroke-width="2" stroke-linecap="round"/>
      <line x1="319.46" y1="305.53" x2="306.45" y2="283.02"
        stroke="#C0762A" stroke-opacity="0.24" stroke-width="2" stroke-linecap="round"/>
      <line x1="392.28" y1="267.93" x2="366.49" y2="211.55"
        stroke="#e0bb95" stroke-opacity="0.43" stroke-width="4" stroke-linecap="round"/>
      <text x="354.01" y="184.26" text-anchor="middle" dominant-baseline="middle"
              font-family="Menlo, monospace" font-size="26" letter-spacing="2"
              fill="#e0bb95" fill-opacity="0.43">10</text><line x1="468.35" y1="237.43" x2="459.83" y2="212.86"
        stroke="#C0762A" stroke-opacity="0.27" stroke-width="2" stroke-linecap="round"/>
      <line x1="546.97" y1="214.31" x2="540.83" y2="189.04"
        stroke="#C0762A" stroke-opacity="0.29" stroke-width="2" stroke-linecap="round"/>
      <line x1="627.44" y1="198.78" x2="623.74" y2="173.04"
        stroke="#C0762A" stroke-opacity="0.3" stroke-width="2" stroke-linecap="round"/>
      <line x1="709.02" y1="190.98" x2="707.78" y2="165.01"
        stroke="#C0762A" stroke-opacity="0.32" stroke-width="2" stroke-linecap="round"/>
      <line x1="790.98" y1="190.98" x2="793.93" y2="129.05"
        stroke="#e0bb95" stroke-opacity="0.55" stroke-width="4" stroke-linecap="round"/>
      <text x="795.36" y="99.08" text-anchor="middle" dominant-baseline="middle"
              font-family="Menlo, monospace" font-size="26" letter-spacing="2"
              fill="#e0bb95" fill-opacity="0.55">15</text><line x1="872.56" y1="198.78" x2="876.26" y2="173.04"
        stroke="#C0762A" stroke-opacity="0.35" stroke-width="2" stroke-linecap="round"/>
      <line x1="953.03" y1="214.31" x2="959.17" y2="189.04"
        stroke="#C0762A" stroke-opacity="0.36" stroke-width="2" stroke-linecap="round"/>
      <line x1="1031.65" y1="237.43" x2="1040.17" y2="212.86"
        stroke="#C0762A" stroke-opacity="0.38" stroke-width="2" stroke-linecap="round"/>
      <line x1="1107.72" y1="267.93" x2="1118.53" y2="244.28"
        stroke="#C0762A" stroke-opacity="0.39" stroke-width="2" stroke-linecap="round"/>
      <line x1="1180.54" y1="305.53" x2="1211.58" y2="251.86"
        stroke="#e0bb95" stroke-opacity="0.68" stroke-width="4" stroke-linecap="round"/>
      <text x="1226.6" y="225.89" text-anchor="middle" dominant-baseline="middle"
              font-family="Menlo, monospace" font-size="26" letter-spacing="2"
              fill="#e0bb95" fill-opacity="0.68">20</text><line x1="1249.45" y1="349.89" x2="1264.55" y2="328.72"
        stroke="#C0762A" stroke-opacity="0.42" stroke-width="2" stroke-linecap="round"/>
      <line x1="1313.82" y1="400.61" x2="1330.87" y2="380.98"
        stroke="#C0762A" stroke-opacity="0.44" stroke-width="2" stroke-linecap="round"/>
      <line x1="1373.07" y1="457.23" x2="1391.91" y2="439.31"
        stroke="#C0762A" stroke-opacity="0.45" stroke-width="2" stroke-linecap="round"/>
      <line x1="1426.67" y1="519.23" x2="1447.13" y2="503.18"
        stroke="#C0762A" stroke-opacity="0.47" stroke-width="2" stroke-linecap="round"/>
      <line x1="1474.12" y1="586.05" x2="1526.32" y2="552.6"
        stroke="#e0bb95" stroke-opacity="0.8" stroke-width="4" stroke-linecap="round"/>
      <text x="1551.58" y="536.41" text-anchor="middle" dominant-baseline="middle"
              font-family="Menlo, monospace" font-size="26" letter-spacing="2"
              fill="#e0bb95" fill-opacity="0.8">25</text><line x1="1514.99" y1="657.08" x2="1538.12" y2="645.2"
        stroke="#C0762A" stroke-opacity="0.5" stroke-width="2" stroke-linecap="round"/>
      <line x1="1548.92" y1="731.68" x2="1573.07" y2="722.06"
        stroke="#C0762A" stroke-opacity="0.51" stroke-width="2" stroke-linecap="round"/>
      <line x1="1575.59" y1="809.17" x2="1600.55" y2="801.89"
        stroke="#C0762A" stroke-opacity="0.53" stroke-width="2" stroke-linecap="round"/>
      <line x1="1594.77" y1="888.85" x2="1620.31" y2="883.98"
        stroke="#C0762A" stroke-opacity="0.54" stroke-width="2" stroke-linecap="round"/>
      
  <g filter="url(#e193-bk-far)"><circle cx="2.3" cy="484.47" r="29.16" fill="url(#e193-bubble)" opacity="0.15"/>
        <circle cx="2.3" cy="484.47" r="29.16" fill="none" stroke="#e0bb95" stroke-opacity="0.05" stroke-width="1.75"/>
      <circle cx="633.57" cy="567.92" r="37.4" fill="url(#e193-bubble)" opacity="0.08"/>
        <circle cx="633.57" cy="567.92" r="37.4" fill="none" stroke="#e0bb95" stroke-opacity="0.03" stroke-width="2.24"/>
      <circle cx="213.14" cy="123.88" r="33.73" fill="url(#e193-bubble)" opacity="0.14"/>
        <circle cx="213.14" cy="123.88" r="33.73" fill="none" stroke="#e0bb95" stroke-opacity="0.05" stroke-width="2.02"/>
      <circle cx="1303.81" cy="481.2" r="54.8" fill="url(#e193-bubble)" opacity="0.14"/>
        <circle cx="1303.81" cy="481.2" r="54.8" fill="none" stroke="#e0bb95" stroke-opacity="0.05" stroke-width="3.29"/>
      <circle cx="817.92" cy="315.48" r="32.59" fill="url(#e193-bubble)" opacity="0.08"/>
        <circle cx="817.92" cy="315.48" r="32.59" fill="none" stroke="#e0bb95" stroke-opacity="0.03" stroke-width="1.96"/>
      <circle cx="1240.88" cy="376.62" r="52.16" fill="url(#e193-bubble)" opacity="0.1"/>
        <circle cx="1240.88" cy="376.62" r="52.16" fill="none" stroke="#e0bb95" stroke-opacity="0.03" stroke-width="3.13"/>
      <circle cx="1273.07" cy="172.39" r="24.2" fill="url(#e193-bubble)" opacity="0.09"/>
        <circle cx="1273.07" cy="172.39" r="24.2" fill="none" stroke="#e0bb95" stroke-opacity="0.03" stroke-width="1.45"/>
      <circle cx="803.81" cy="268.68" r="51.04" fill="url(#e193-bubble)" opacity="0.11"/>
        <circle cx="803.81" cy="268.68" r="51.04" fill="none" stroke="#e0bb95" stroke-opacity="0.04" stroke-width="3.06"/>
      <circle cx="661.18" cy="187.89" r="40.86" fill="url(#e193-bubble)" opacity="0.1"/>
        <circle cx="661.18" cy="187.89" r="40.86" fill="none" stroke="#e0bb95" stroke-opacity="0.03" stroke-width="2.45"/>
      <circle cx="1495.74" cy="159" r="38.92" fill="url(#e193-bubble)" opacity="0.13"/>
        <circle cx="1495.74" cy="159" r="38.92" fill="none" stroke="#e0bb95" stroke-opacity="0.05" stroke-width="2.34"/>
      <circle cx="629.43" cy="359.51" r="65.8" fill="url(#e193-bubble)" opacity="0.13"/>
        <circle cx="629.43" cy="359.51" r="65.8" fill="none" stroke="#e0bb95" stroke-opacity="0.05" stroke-width="3.95"/>
      <circle cx="1046.46" cy="152.79" r="76.53" fill="url(#e193-bubble)" opacity="0.11"/>
        <circle cx="1046.46" cy="152.79" r="76.53" fill="none" stroke="#e0bb95" stroke-opacity="0.04" stroke-width="4.59"/>
      <circle cx="676.73" cy="332.71" r="38.23" fill="url(#e193-bubble)" opacity="0.13"/>
        <circle cx="676.73" cy="332.71" r="38.23" fill="none" stroke="#e0bb95" stroke-opacity="0.05" stroke-width="2.29"/>
      <circle cx="905.68" cy="546.68" r="50.58" fill="url(#e193-bubble)" opacity="0.13"/>
        <circle cx="905.68" cy="546.68" r="50.58" fill="none" stroke="#e0bb95" stroke-opacity="0.05" stroke-width="3.03"/>
      <circle cx="536.11" cy="583.19" r="36.32" fill="url(#e193-bubble)" opacity="0.15"/>
        <circle cx="536.11" cy="583.19" r="36.32" fill="none" stroke="#e0bb95" stroke-opacity="0.05" stroke-width="2.18"/>
      <circle cx="468.01" cy="549.62" r="35.54" fill="url(#e193-bubble)" opacity="0.12"/>
        <circle cx="468.01" cy="549.62" r="35.54" fill="none" stroke="#e0bb95" stroke-opacity="0.04" stroke-width="2.13"/>
      <circle cx="572.78" cy="508.05" r="33.59" fill="url(#e193-bubble)" opacity="0.14"/>
        <circle cx="572.78" cy="508.05" r="33.59" fill="none" stroke="#e0bb95" stroke-opacity="0.05" stroke-width="2.02"/>
      <circle cx="1142.69" cy="281.99" r="31.85" fill="url(#e193-bubble)" opacity="0.1"/>
        <circle cx="1142.69" cy="281.99" r="31.85" fill="none" stroke="#e0bb95" stroke-opacity="0.03" stroke-width="1.91"/>
      <circle cx="462.05" cy="67.1" r="78.56" fill="url(#e193-bubble)" opacity="0.07"/>
        <circle cx="462.05" cy="67.1" r="78.56" fill="none" stroke="#e0bb95" stroke-opacity="0.02" stroke-width="4.71"/>
      <circle cx="648.11" cy="506.21" r="39.83" fill="url(#e193-bubble)" opacity="0.16"/>
        <circle cx="648.11" cy="506.21" r="39.83" fill="none" stroke="#e0bb95" stroke-opacity="0.06" stroke-width="2.39"/>
      <circle cx="378.29" cy="354.4" r="29.93" fill="url(#e193-bubble)" opacity="0.15"/>
        <circle cx="378.29" cy="354.4" r="29.93" fill="none" stroke="#e0bb95" stroke-opacity="0.05" stroke-width="1.8"/>
      <circle cx="264.66" cy="242.12" r="42.75" fill="url(#e193-bubble)" opacity="0.09"/>
        <circle cx="264.66" cy="242.12" r="42.75" fill="none" stroke="#e0bb95" stroke-opacity="0.03" stroke-width="2.57"/></g>
    <g filter="url(#e193-bk-mid)"><circle cx="1340.62" cy="99.3" r="38.59" fill="url(#e193-bubble)" opacity="0.14"/>
        <circle cx="1340.62" cy="99.3" r="38.59" fill="none" stroke="#e0bb95" stroke-opacity="0.08" stroke-width="2.32"/>
      <circle cx="1198.48" cy="373.02" r="44.24" fill="url(#e193-bubble)" opacity="0.27"/>
        <circle cx="1198.48" cy="373.02" r="44.24" fill="none" stroke="#e0bb95" stroke-opacity="0.16" stroke-width="2.65"/>
      <circle cx="1151.75" cy="580.37" r="41.56" fill="url(#e193-bubble)" opacity="0.2"/>
        <circle cx="1151.75" cy="580.37" r="41.56" fill="none" stroke="#e0bb95" stroke-opacity="0.12" stroke-width="2.49"/>
      <circle cx="467.37" cy="441.32" r="23.28" fill="url(#e193-bubble)" opacity="0.29"/>
        <circle cx="467.37" cy="441.32" r="23.28" fill="none" stroke="#e0bb95" stroke-opacity="0.17" stroke-width="1.4"/>
      <circle cx="193.67" cy="27.49" r="22.46" fill="url(#e193-bubble)" opacity="0.21"/>
        <circle cx="193.67" cy="27.49" r="22.46" fill="none" stroke="#e0bb95" stroke-opacity="0.13" stroke-width="1.35"/>
      <circle cx="1128.25" cy="435.3" r="21.68" fill="url(#e193-bubble)" opacity="0.24"/>
        <circle cx="1128.25" cy="435.3" r="21.68" fill="none" stroke="#e0bb95" stroke-opacity="0.14" stroke-width="1.3"/>
      <circle cx="1047.65" cy="362.42" r="29.84" fill="url(#e193-bubble)" opacity="0.14"/>
        <circle cx="1047.65" cy="362.42" r="29.84" fill="none" stroke="#e0bb95" stroke-opacity="0.08" stroke-width="1.79"/>
      <circle cx="471.65" cy="433.56" r="15.46" fill="url(#e193-bubble)" opacity="0.23"/>
        <circle cx="471.65" cy="433.56" r="15.46" fill="none" stroke="#e0bb95" stroke-opacity="0.14" stroke-width="0.93"/>
      <circle cx="1251.16" cy="507.95" r="34.2" fill="url(#e193-bubble)" opacity="0.17"/>
        <circle cx="1251.16" cy="507.95" r="34.2" fill="none" stroke="#e0bb95" stroke-opacity="0.1" stroke-width="2.05"/>
      <circle cx="401.63" cy="77.28" r="43.11" fill="url(#e193-bubble)" opacity="0.14"/>
        <circle cx="401.63" cy="77.28" r="43.11" fill="none" stroke="#e0bb95" stroke-opacity="0.08" stroke-width="2.59"/>
      <circle cx="683.4" cy="147.4" r="43.94" fill="url(#e193-bubble)" opacity="0.27"/>
        <circle cx="683.4" cy="147.4" r="43.94" fill="none" stroke="#e0bb95" stroke-opacity="0.16" stroke-width="2.64"/>
      <circle cx="698.51" cy="337.19" r="35.38" fill="url(#e193-bubble)" opacity="0.3"/>
        <circle cx="698.51" cy="337.19" r="35.38" fill="none" stroke="#e0bb95" stroke-opacity="0.18" stroke-width="2.12"/></g>
    <g><circle cx="1423.86" cy="568.21" r="7.97" fill="url(#e193-bubble)" opacity="0.43"/>
        <circle cx="1423.86" cy="568.21" r="7.97" fill="none" stroke="#e0bb95" stroke-opacity="0.43" stroke-width="0.7"/>
      <circle cx="991.93" cy="161.28" r="6.39" fill="url(#e193-bubble)" opacity="0.24"/>
        <circle cx="991.93" cy="161.28" r="6.39" fill="none" stroke="#e0bb95" stroke-opacity="0.24" stroke-width="0.7"/>
      <circle cx="1091.7" cy="73.33" r="21.36" fill="url(#e193-bubble)" opacity="0.42"/>
        <circle cx="1091.7" cy="73.33" r="21.36" fill="none" stroke="#e0bb95" stroke-opacity="0.42" stroke-width="1.28"/>
      <circle cx="625.16" cy="464.29" r="24.25" fill="url(#e193-bubble)" opacity="0.33"/>
        <circle cx="625.16" cy="464.29" r="24.25" fill="none" stroke="#e0bb95" stroke-opacity="0.33" stroke-width="1.45"/>
      <circle cx="1053.06" cy="94.49" r="17.13" fill="url(#e193-bubble)" opacity="0.32"/>
        <circle cx="1053.06" cy="94.49" r="17.13" fill="none" stroke="#e0bb95" stroke-opacity="0.32" stroke-width="1.03"/>
      <circle cx="1253.37" cy="400.35" r="22.18" fill="url(#e193-bubble)" opacity="0.34"/>
        <circle cx="1253.37" cy="400.35" r="22.18" fill="none" stroke="#e0bb95" stroke-opacity="0.34" stroke-width="1.33"/>
      <circle cx="865.48" cy="235.99" r="12.08" fill="url(#e193-bubble)" opacity="0.46"/>
        <circle cx="865.48" cy="235.99" r="12.08" fill="none" stroke="#e0bb95" stroke-opacity="0.46" stroke-width="0.72"/>
      <circle cx="842.3" cy="451.36" r="17.52" fill="url(#e193-bubble)" opacity="0.45"/>
        <circle cx="842.3" cy="451.36" r="17.52" fill="none" stroke="#e0bb95" stroke-opacity="0.45" stroke-width="1.05"/></g>
  <g filter="url(#e193-bk-far)"><circle cx="2.37" cy="456.51" r="1.83" fill="#e0bb95" opacity="0.32"/><circle cx="928.47" cy="183.8" r="1.56" fill="#e0bb95" opacity="0.13"/><circle cx="326.81" cy="646.37" r="1.48" fill="#e0bb95" opacity="0.42"/><circle cx="1282.5" cy="786.85" r="2.18" fill="#e0bb95" opacity="0.45"/><circle cx="858.26" cy="444.03" r="1.44" fill="#e0bb95" opacity="0.27"/><circle cx="498.25" cy="582.47" r="2.54" fill="#e0bb95" opacity="0.43"/><circle cx="1388.57" cy="351.69" r="1.71" fill="#e0bb95" opacity="0.11"/><circle cx="47.81" cy="512.4" r="2.36" fill="#e0bb95" opacity="0.44"/><circle cx="23.26" cy="470.27" r="1.95" fill="#e0bb95" opacity="0.19"/><circle cx="1189.49" cy="635.93" r="0.9" fill="#e0bb95" opacity="0.38"/><circle cx="1352.78" cy="380.13" r="2.55" fill="#e0bb95" opacity="0.15"/><circle cx="910.13" cy="546.04" r="1.74" fill="#e0bb95" opacity="0.34"/><circle cx="131.12" cy="124.08" r="2.25" fill="#e0bb95" opacity="0.27"/><circle cx="45.65" cy="424.95" r="1.7" fill="#e0bb95" opacity="0.31"/><circle cx="414.77" cy="261.26" r="1.89" fill="#e0bb95" opacity="0.17"/><circle cx="1109.89" cy="730.9" r="1.11" fill="#e0bb95" opacity="0.24"/><circle cx="452.56" cy="626.63" r="2.1" fill="#e0bb95" opacity="0.2"/><circle cx="672.57" cy="717.85" r="0.8" fill="#e0bb95" opacity="0.3"/><circle cx="1455.79" cy="472.9" r="0.52" fill="#e0bb95" opacity="0.38"/><circle cx="116.93" cy="93.57" r="2.23" fill="#e0bb95" opacity="0.3"/><circle cx="328.64" cy="259.04" r="0.93" fill="#e0bb95" opacity="0.11"/><circle cx="578.88" cy="134.22" r="2.01" fill="#e0bb95" opacity="0.28"/><circle cx="1335.74" cy="393.27" r="0.72" fill="#e0bb95" opacity="0.4"/><circle cx="1357.62" cy="545.03" r="1.35" fill="#e0bb95" opacity="0.41"/><circle cx="360.47" cy="788.12" r="1.34" fill="#e0bb95" opacity="0.42"/><circle cx="803.1" cy="415.45" r="0.54" fill="#e0bb95" opacity="0.09"/><circle cx="77.15" cy="379.42" r="0.68" fill="#e0bb95" opacity="0.33"/><circle cx="1438.3" cy="554.39" r="2.56" fill="#e0bb95" opacity="0.14"/><circle cx="38.91" cy="743.18" r="0.96" fill="#e0bb95" opacity="0.11"/><circle cx="409.56" cy="780.64" r="1.28" fill="#e0bb95" opacity="0.21"/><circle cx="570.07" cy="373.44" r="1.77" fill="#e0bb95" opacity="0.33"/><circle cx="643.52" cy="306.85" r="1.46" fill="#e0bb95" opacity="0.25"/><circle cx="811.46" cy="114.39" r="0.86" fill="#e0bb95" opacity="0.34"/><circle cx="551.52" cy="505.55" r="2.46" fill="#e0bb95" opacity="0.2"/><circle cx="1421.53" cy="641.33" r="1.78" fill="#e0bb95" opacity="0.38"/><circle cx="302.91" cy="794.07" r="1.22" fill="#e0bb95" opacity="0.42"/><circle cx="941.44" cy="456.7" r="1.86" fill="#e0bb95" opacity="0.12"/><circle cx="1394.3" cy="543.95" r="2.04" fill="#e0bb95" opacity="0.13"/><circle cx="687.33" cy="280.76" r="1.53" fill="#e0bb95" opacity="0.12"/><circle cx="893.78" cy="442.6" r="1.7" fill="#e0bb95" opacity="0.16"/></g>
  <rect width="1500" height="1000" fill="url(#e193-vig)"/>
  <rect width="1500" height="1000" filter="url(#e193-grain)" opacity="0.6" style="mix-blend-mode:overlay"/>
</svg>