<svg xmlns="http://www.w3.org/2000/svg" viewBox="0 0 1000 1250" width="1000" height="1250" role="img" aria-label="The first jar">

  <defs>
    
  <radialGradient id="e157-bubble" cx="38%" cy="34%" r="68%">
    <stop offset="0%" stop-color="#e4d4b5" stop-opacity="0.18"/>
    <stop offset="62%" stop-color="#e4d4b5" stop-opacity="0.05"/>
    <stop offset="88%" stop-color="#e4d4b5" stop-opacity="0.42"/>
    <stop offset="100%" stop-color="#e4d4b5" stop-opacity="0.08"/>
  </radialGradient>
    
  <filter id="e157-bk-far" x="-35%" y="-35%" width="170%" height="170%">
    <feGaussianBlur stdDeviation="25"/>
  </filter>
    
  <filter id="e157-bk-mid" x="-35%" y="-35%" width="170%" height="170%">
    <feGaussianBlur stdDeviation="7.5"/>
  </filter>
    
  <filter id="e157-soft" x="-35%" y="-35%" width="170%" height="170%">
    <feGaussianBlur stdDeviation="62.5"/>
  </filter>
    
  <filter id="e157-warp" x="-25%" y="-25%" width="150%" height="150%">
    <feTurbulence type="fractalNoise" baseFrequency="0.006 0.011" numOctaves="4" seed="157" result="t"/>
    <feDisplacementMap in="SourceGraphic" in2="t" scale="120" xChannelSelector="R" yChannelSelector="G"/>
    <feGaussianBlur stdDeviation="4"/>
  </filter>
    
  <filter id="e157-caustic" x="0" y="0" width="100%" height="100%">
    <feTurbulence type="fractalNoise" baseFrequency="0.01" numOctaves="2" seed="158" result="n"/>
    <feColorMatrix in="n" type="matrix"
      values="0 0 0 0 1  0 0 0 0 0.82  0 0 0 0 0.55  1.6 0 0 0 -0.62"/>
    <feGaussianBlur stdDeviation="2"/>
  </filter>
    
  <filter id="e157-grain" x="0" y="0" width="100%" height="100%">
    <feTurbulence type="fractalNoise" baseFrequency="0.8" numOctaves="3" seed="160"/>
    <feColorMatrix type="saturate" values="0"/>
    <feComponentTransfer><feFuncA type="linear" slope="0.22"/></feComponentTransfer>
    <feComposite operator="in" in2="SourceGraphic"/>
  </filter>
    
  <radialGradient id="e157-vig" cx="50%" cy="46%" r="72%">
    <stop offset="45%" stop-color="#000" stop-opacity="0"/>
    <stop offset="100%" stop-color="#000" stop-opacity="0.78"/>
  </radialGradient>
    
  <linearGradient id="e157-obj" x1="0" y1="0" x2="1" y2="0">
    <stop offset="0%" stop-color="#262014"/>
    <stop offset="16%" stop-color="#70644f"/>
    <stop offset="46%" stop-color="#443924"/>
    <stop offset="82%" stop-color="#61543c"/>
    <stop offset="100%" stop-color="#201b11"/>
  </linearGradient>
  <linearGradient id="e157-fill" x1="0" y1="0" x2="0" y2="1">
    <stop offset="0%" stop-color="#dfcba6"/>
    <stop offset="35%" stop-color="#C9A96A"/>
    <stop offset="100%" stop-color="#78643f"/>
  </linearGradient>
    <linearGradient id="e157-room" x1="0.2" y1="0" x2="0.8" y2="1">
      <stop offset="0%" stop-color="#2a2316"/>
      <stop offset="55%" stop-color="#0C0906"/>
      <stop offset="100%" stop-color="#070504"/>
    </linearGradient>
  </defs>
  
  <rect width="1000" height="1250" fill="#070504"/>
  
  <linearGradient id="e157-shaft-0" x1="0" y1="0" x2="0" y2="1">
    <stop offset="0%" stop-color="#e1d0ad" stop-opacity="0.22"/>
    <stop offset="55%" stop-color="#e1d0ad" stop-opacity="0.1"/>
    <stop offset="100%" stop-color="#e1d0ad" stop-opacity="0"/>
  </linearGradient>
  <path d="M350 0 L650 0 L845 1250 L155 1250 Z"
        fill="url(#e157-shaft-0)"/>
  <ellipse cx="500" cy="687.5" rx="300" ry="275" fill="#C9A96A" opacity="0.18" filter="url(#e157-soft)"/>
  <g transform="translate(340 425)">
           <rect width="320" height="425" rx="40" fill="#120D08" stroke="#e1d0ad" stroke-opacity="0.5" stroke-width="2"/>
           <rect x="20" y="150" width="280" height="250" rx="30" fill="#C9A96A" opacity="0.55"/>
           <ellipse cx="160" cy="150" rx="140" ry="20" fill="#e1d0ad" opacity="0.4"/>
         </g>
  <ellipse cx="500" cy="987.5" rx="260" ry="25" fill="#000" opacity="0.7" filter="url(#e157-bk-mid)"/>
  <g filter="url(#e157-bk-far)"><circle cx="1.27" cy="386.4" r="1.93" fill="#e1d0ad" opacity="0.19"/><circle cx="308.29" cy="589.24" r="2.67" fill="#e1d0ad" opacity="0.44"/><circle cx="46.02" cy="525.31" r="0.95" fill="#e1d0ad" opacity="0.13"/><circle cx="616.39" cy="750.85" r="2.81" fill="#e1d0ad" opacity="0.38"/><circle cx="726.2" cy="308.88" r="0.9" fill="#e1d0ad" opacity="0.39"/><circle cx="632.73" cy="321.47" r="1.95" fill="#e1d0ad" opacity="0.35"/><circle cx="79.04" cy="453.08" r="3.64" fill="#e1d0ad" opacity="0.43"/><circle cx="391.9" cy="741.1" r="2.15" fill="#e1d0ad" opacity="0.26"/><circle cx="517.38" cy="861.56" r="1.36" fill="#e1d0ad" opacity="0.14"/><circle cx="487.45" cy="673.12" r="2.42" fill="#e1d0ad" opacity="0.15"/><circle cx="20.3" cy="216.43" r="0.75" fill="#e1d0ad" opacity="0.1"/><circle cx="546.01" cy="968.89" r="1.64" fill="#e1d0ad" opacity="0.2"/><circle cx="179.01" cy="873.31" r="1.1" fill="#e1d0ad" opacity="0.23"/><circle cx="519.46" cy="668.64" r="1.2" fill="#e1d0ad" opacity="0.44"/><circle cx="815.82" cy="525.4" r="1.52" fill="#e1d0ad" opacity="0.38"/><circle cx="553.8" cy="915.89" r="2.74" fill="#e1d0ad" opacity="0.33"/><circle cx="836.02" cy="30.28" r="0.9" fill="#e1d0ad" opacity="0.34"/><circle cx="537.81" cy="1184.19" r="0.9" fill="#e1d0ad" opacity="0.17"/><circle cx="887.25" cy="48.03" r="3.37" fill="#e1d0ad" opacity="0.17"/><circle cx="438.75" cy="142.01" r="1.78" fill="#e1d0ad" opacity="0.37"/><circle cx="106.4" cy="386.49" r="2.5" fill="#e1d0ad" opacity="0.28"/><circle cx="656.04" cy="1232.54" r="1.44" fill="#e1d0ad" opacity="0.27"/><circle cx="912.18" cy="1185.87" r="3.22" fill="#e1d0ad" opacity="0.31"/><circle cx="864.47" cy="187.92" r="3.16" fill="#e1d0ad" opacity="0.1"/><circle cx="757.08" cy="405.9" r="2.7" fill="#e1d0ad" opacity="0.19"/><circle cx="43.24" cy="1003.27" r="2.35" fill="#e1d0ad" opacity="0.41"/><circle cx="902.64" cy="760.1" r="3.96" fill="#e1d0ad" opacity="0.21"/><circle cx="580.87" cy="942.22" r="3.19" fill="#e1d0ad" opacity="0.16"/><circle cx="842.58" cy="374.34" r="1.29" fill="#e1d0ad" opacity="0.23"/><circle cx="882.34" cy="582.18" r="3.24" fill="#e1d0ad" opacity="0.13"/><circle cx="740.43" cy="604.1" r="2.2" fill="#e1d0ad" opacity="0.12"/><circle cx="353.96" cy="1238.47" r="3.79" fill="#e1d0ad" opacity="0.4"/><circle cx="305.14" cy="551.76" r="2.92" fill="#e1d0ad" opacity="0.31"/><circle cx="354.28" cy="472.61" r="2.26" fill="#e1d0ad" opacity="0.38"/></g>
  <rect width="1000" height="1250" fill="url(#e157-vig)"/>
  <rect width="1000" height="1250" filter="url(#e157-grain)" opacity="0.6" style="mix-blend-mode:overlay"/>
</svg>